<svg width="48" height="48" viewBox="0 0 48 48" fill="none" xmlns="http://www.w3.org/2000/svg">
<path d="M33.6561 10.3701C29.5824 12.3584 29.6309 18.9055 33.7531 20.8939C35.8385 21.8638 37.0994 21.8638 39.1847 20.8939C43.3555 18.9055 43.3555 12.3099 39.1847 10.3216C37.0994 9.35162 35.693 9.35162 33.6561 10.3701Z" fill="black"/>
<path d="M27.5452 24.8707C25.6538 26.7135 27.1573 30.7873 30.3095 32.4362C33.2194 33.9881 39.6695 33.9881 42.6278 32.4362C45.7801 30.7873 47.2835 26.7135 45.3921 24.8707C44.2767 23.7067 28.6607 23.7067 27.5452 24.8707Z" fill="black"/>
<path d="M8.38364 10.3701C4.3099 12.3584 4.35839 18.9055 8.48063 20.8939C10.566 21.8638 11.8269 21.8638 13.9123 20.8939C18.083 18.9055 18.083 12.3099 13.9123 10.3216C11.8269 9.35162 10.4205 9.35162 8.38364 10.3701Z" fill="black"/>
<path d="M2.27277 24.8707C0.381386 26.7135 1.88479 30.7873 5.03709 32.4362C7.9469 33.9881 14.397 33.9881 17.3553 32.4362C20.5076 30.7873 22.011 26.7135 20.1196 24.8707C19.0042 23.7067 3.38819 23.7067 2.27277 24.8707Z" fill="black"/>
<path d="M15.2513 16.1284C15.2249 13.0307 16.6889 9.82549 19.778 8.31548C21.1986 7.60563 22.4815 7.20956 23.8205 7.20019C25.1583 7.19084 26.4562 7.56825 27.9041 8.24172L27.9041 8.24168L27.9124 8.24561C31.066 9.7491 32.5873 12.9673 32.5873 16.0882C32.5873 19.2091 31.066 22.4272 27.9124 23.9307L27.9124 23.9308L27.9041 23.9346C26.4658 24.6036 25.2161 24.9842 23.9153 24.9842C22.6144 24.9842 21.3647 24.6036 19.9264 23.9346L19.9264 23.9347L19.9142 23.9288C16.7972 22.4253 15.2777 19.2282 15.2513 16.1284Z" fill="black" stroke="white" stroke-width="1.92"/>
<path d="M15.3387 39.1449C13.0393 37.9409 11.3477 35.8631 10.5658 33.7305C9.79567 31.6302 9.83992 29.2207 11.4601 27.6333C11.7107 27.3792 12.0464 27.2323 12.3034 27.1393C12.5965 27.0332 12.9442 26.9442 13.3218 26.8673C14.0797 26.713 15.0515 26.5892 16.1482 26.4918C18.3472 26.2965 21.1372 26.2 23.9151 26.2C26.693 26.2 29.483 26.2965 31.682 26.4918C32.7787 26.5892 33.7505 26.713 34.5084 26.8673C34.886 26.9442 35.2337 27.0332 35.5268 27.1393C35.7838 27.2323 36.1194 27.3792 36.3701 27.6333C37.9903 29.2207 38.0345 31.6302 37.2644 33.7305C36.4821 35.864 34.7895 37.9427 32.4886 39.1464C30.3361 40.2754 27.0509 40.792 23.8911 40.792C20.7344 40.792 17.4628 40.2764 15.3387 39.1449Z" fill="black" stroke="white" stroke-width="1.92"/>
</svg>
