<svg width="189" height="8" viewBox="0 0 189 8" fill="none" xmlns="http://www.w3.org/2000/svg">
    <path fill-rule="evenodd" clip-rule="evenodd"
        d="M4.34315 1.48699C8.34749 1.97532 18.8711 1.99974 47.4387 2.04857C92.0481 2.12182 127.452 2.65899 137.292 3.44032C138.074 3.51357 75.5424 4.05074 69.1208 3.66007C59.1099 3.02524 11.3019 3.56241 1.6817 4.29491C-1.05297 4.49024 -0.0274605 5.17391 1.75496 5.32041C4.53846 5.56458 12.01 5.54016 32.4957 5.49133C46.9016 5.46691 161.514 6.0285 174.039 7.02958C181.071 7.59117 185.344 8.10392 187.298 7.98183C188.934 7.88417 188.958 7.59117 187.542 6.78542C186.59 6.24825 187.664 5.93083 188.348 5.78433C189.398 5.54016 188.958 4.70999 187.64 4.05074C185.857 3.14732 182.781 3.17174 184.246 4.07516C184.563 4.27049 184.636 4.75883 183.513 4.66116C180.241 4.36816 157.119 2.36599 150.844 2.02416C83.8441 -1.68718 18.456 1.02307 4.61171 0.119648C-0.296055 -0.222186 1.95032 1.19399 4.34315 1.48699Z"
        fill="#FF9529" />
</svg>