<svg width="500" height="500" viewBox="0 0 500 500" fill="none" xmlns="http://www.w3.org/2000/svg">
<path d="M417.4 326.93H443.88V315.74H417.4V326.93Z" fill="#EBEBEB"/>
<path d="M432.18 341.04H458.66V329.85H432.18V341.04Z" fill="#EBEBEB"/>
<path d="M206.41 203.36H232.89V192.17H206.41V203.36Z" fill="#EBEBEB"/>
<path d="M221.19 217.47H247.67V206.28H221.19V217.47Z" fill="#EBEBEB"/>
<path d="M235.9 203.36H262.38V192.17H235.9V203.36Z" fill="#EBEBEB"/>
<path d="M41.3401 341.03H67.8201V329.84H41.3401V341.03Z" fill="#EBEBEB"/>
<path d="M56.1201 57.9199H82.6001V46.7299H56.1201V57.9199Z" fill="#EBEBEB"/>
<path d="M41.3401 72.03H67.8201V60.84H41.3401V72.03Z" fill="#EBEBEB"/>
<path d="M417.4 57.9199H443.88V46.7299H417.4V57.9199Z" fill="#EBEBEB"/>
<path d="M450.64 71.26H307.84V230.58H450.64V71.26Z" fill="#4791FF" fill-opacity="0.2"/>
<path d="M441.24 80.6699H317.25V221.26H441.24V80.6699Z" fill="#FF9529"/>
<path d="M372.16 105.53H328.46V157.32H372.16V105.53Z" fill="white"/>
<path d="M351.88 109.05C351.88 109.36 351.788 109.664 351.615 109.922C351.443 110.18 351.198 110.382 350.911 110.5C350.624 110.619 350.308 110.65 350.004 110.59C349.699 110.529 349.419 110.38 349.2 110.16C348.98 109.941 348.831 109.661 348.77 109.356C348.71 109.052 348.741 108.736 348.859 108.449C348.978 108.162 349.18 107.917 349.438 107.745C349.696 107.572 349.999 107.48 350.31 107.48C350.726 107.48 351.126 107.645 351.42 107.94C351.715 108.234 351.88 108.634 351.88 109.05Z" fill="#A6A6A6"/>
<path d="M336.78 115.9C341.2 115.56 345.62 115.54 350.03 115.49C354.44 115.44 358.87 115.56 363.29 115.9C358.87 116.24 354.45 116.26 350.03 116.31C345.61 116.36 341.2 116.24 336.78 115.9Z" fill="#EBEBEB"/>
<path d="M336.78 120C341.568 119.453 346.402 119.453 351.19 120C348.798 120.296 346.39 120.433 343.98 120.41C341.574 120.428 339.169 120.291 336.78 120Z" fill="#EBEBEB"/>
<path d="M336.78 124.09C339.841 123.799 342.915 123.662 345.99 123.68C349.062 123.657 352.133 123.794 355.19 124.09C352.12 124.41 349.06 124.48 345.99 124.5C342.92 124.52 339.85 124.41 336.78 124.09Z" fill="#EBEBEB"/>
<path d="M336.78 128.18C340.62 127.86 344.46 127.78 348.3 127.77C352.14 127.76 355.98 127.86 359.82 128.18C355.98 128.5 352.14 128.58 348.3 128.59C344.46 128.6 340.62 128.5 336.78 128.18Z" fill="#EBEBEB"/>
<path d="M336.78 132.27C340.11 131.95 343.45 131.88 346.78 131.86C350.11 131.84 353.45 131.95 356.78 132.27C353.44 132.59 350.1 132.67 346.78 132.68C343.46 132.69 340.11 132.59 336.78 132.27Z" fill="#EBEBEB"/>
<path d="M336.78 136.36C341.05 136.02 345.32 136 349.59 135.95C353.86 135.9 358.13 136.02 362.4 136.36C358.13 136.71 353.86 136.73 349.59 136.78C345.32 136.83 341.05 136.7 336.78 136.36Z" fill="#EBEBEB"/>
<path d="M336.78 140.46C339.527 140.169 342.288 140.032 345.05 140.05C347.816 140.027 350.58 140.164 353.33 140.46C347.827 141.007 342.283 141.007 336.78 140.46Z" fill="#EBEBEB"/>
<path d="M336.78 144.55C341.2 144.21 345.62 144.19 350.03 144.14C354.44 144.09 358.87 144.21 363.29 144.55C358.87 144.89 354.45 144.91 350.03 144.96C345.61 145.01 341.2 144.89 336.78 144.55Z" fill="#EBEBEB"/>
<path d="M336.78 148.64C341.2 148.3 345.62 148.28 350.03 148.23C354.44 148.18 358.87 148.3 363.29 148.64C358.87 148.98 354.45 149.01 350.03 149.05C345.61 149.09 341.2 149 336.78 148.64Z" fill="#EBEBEB"/>
<path d="M430.53 137.82H378.82V199.1H430.53V137.82Z" fill="white"/>
<path d="M385.13 142.28C385.13 142.59 385.038 142.894 384.865 143.152C384.693 143.41 384.448 143.612 384.161 143.73C383.874 143.849 383.558 143.88 383.254 143.82C382.949 143.759 382.669 143.61 382.45 143.39C382.23 143.171 382.081 142.891 382.02 142.586C381.96 142.282 381.991 141.966 382.109 141.679C382.228 141.392 382.43 141.147 382.688 140.975C382.946 140.802 383.249 140.71 383.56 140.71C383.976 140.71 384.376 140.875 384.67 141.17C384.965 141.464 385.13 141.864 385.13 142.28Z" fill="#A6A6A6"/>
<path d="M386.05 153.11C387.95 152.821 389.869 152.681 391.79 152.69C393.708 152.676 395.624 152.816 397.52 153.11C393.716 153.657 389.854 153.657 386.05 153.11Z" fill="#EBEBEB"/>
<path d="M386.05 157.73C388.516 157.441 390.997 157.3 393.48 157.31C395.96 157.295 398.438 157.436 400.9 157.73C395.965 158.277 390.985 158.277 386.05 157.73Z" fill="#EBEBEB"/>
<path d="M386.05 162.35C388.332 162.059 390.63 161.922 392.93 161.94C395.23 161.917 397.529 162.054 399.81 162.35C395.24 162.897 390.62 162.897 386.05 162.35Z" fill="#EBEBEB"/>
<path d="M386.05 167C388.332 166.709 390.63 166.572 392.93 166.59C395.23 166.567 397.529 166.704 399.81 167C395.24 167.547 390.62 167.547 386.05 167Z" fill="#EBEBEB"/>
<path d="M386.05 171.59C388.036 171.299 390.042 171.162 392.05 171.18C394.058 171.157 396.064 171.294 398.05 171.59C394.069 172.14 390.031 172.14 386.05 171.59Z" fill="#EBEBEB"/>
<path d="M386.05 176.21C388.589 175.919 391.144 175.782 393.7 175.8C396.256 175.777 398.811 175.914 401.35 176.21C396.265 176.757 391.135 176.757 386.05 176.21Z" fill="#EBEBEB"/>
<path d="M386.05 180.83C390.242 180.284 394.488 180.284 398.68 180.83C394.488 181.377 390.242 181.377 386.05 180.83Z" fill="#EBEBEB"/>
<path d="M386.05 185.45C391.313 184.903 396.618 184.903 401.88 185.45C396.618 185.997 391.313 185.997 386.05 185.45Z" fill="#EBEBEB"/>
<path d="M386.05 190.07C391.313 189.523 396.618 189.523 401.88 190.07C396.618 190.617 391.313 190.617 386.05 190.07Z" fill="#EBEBEB"/>
<path d="M408.65 153.11C411.146 152.821 413.657 152.68 416.17 152.69C418.68 152.675 421.188 152.816 423.68 153.11C418.695 153.654 413.665 153.654 408.68 153.11H408.65Z" fill="#EBEBEB"/>
<path d="M408.65 157.73C410.281 157.442 411.934 157.301 413.59 157.31C415.246 157.295 416.9 157.436 418.53 157.73C415.259 158.276 411.921 158.276 408.65 157.73Z" fill="#EBEBEB"/>
<path d="M408.65 162.35C410.995 162.059 413.357 161.922 415.72 161.94C418.083 161.917 420.445 162.054 422.79 162.35C418.093 162.897 413.348 162.897 408.65 162.35Z" fill="#EBEBEB"/>
<path d="M408.65 167C410.932 166.709 413.23 166.572 415.53 166.59C417.83 166.567 420.129 166.704 422.41 167C417.84 167.547 413.221 167.547 408.65 167Z" fill="#EBEBEB"/>
<path d="M408.65 171.59C411.146 171.299 413.657 171.162 416.17 171.18C418.68 171.157 421.188 171.294 423.68 171.59C418.695 172.134 413.665 172.134 408.68 171.59H408.65Z" fill="#EBEBEB"/>
<path d="M408.65 176.21C410.637 175.918 412.643 175.781 414.65 175.8C416.658 175.776 418.664 175.913 420.65 176.21C416.669 176.761 412.631 176.761 408.65 176.21Z" fill="#EBEBEB"/>
<path d="M408.65 180.83C413.348 180.283 418.093 180.283 422.79 180.83C418.093 181.377 413.348 181.377 408.65 180.83Z" fill="#EBEBEB"/>
<path d="M408.65 185.45C412.276 184.903 415.964 184.903 419.59 185.45C415.964 185.997 412.276 185.997 408.65 185.45Z" fill="#EBEBEB"/>
<path d="M408.65 190.07C412.125 189.523 415.665 189.523 419.14 190.07C415.665 190.617 412.125 190.617 408.65 190.07Z" fill="#EBEBEB"/>
<path d="M394.44 91.29H368.14V117.59H394.44V91.29Z" fill="#A6A6A6"/>
<path d="M382.86 93.9999C382.86 94.3104 382.768 94.614 382.596 94.8722C382.423 95.1304 382.178 95.3316 381.891 95.4504C381.604 95.5693 381.288 95.6003 380.984 95.5398C380.679 95.4792 380.4 95.3297 380.18 95.1101C379.96 94.8905 379.811 94.6108 379.75 94.3062C379.69 94.0017 379.721 93.686 379.84 93.3991C379.959 93.1122 380.16 92.867 380.418 92.6945C380.676 92.522 380.98 92.4299 381.29 92.4299C381.707 92.4299 382.106 92.5953 382.4 92.8898C382.695 93.1842 382.86 93.5835 382.86 93.9999Z" fill="#EBEBEB"/>
<path d="M441.13 80.6699H437.58V221.42H441.13V80.6699Z" fill="#C7C7C7"/>
<path d="M156.635 119.28C170.493 99.8723 165.995 72.9049 146.587 59.0463C127.18 45.1877 100.212 49.686 86.3539 69.0935C72.4953 88.501 76.9936 115.468 96.4011 129.327C115.809 143.186 142.776 138.687 156.635 119.28Z" fill="#EBEBEB"/>
<path d="M156.422 119.854C170.075 101.651 166.386 75.8269 148.182 62.1744C129.979 48.5219 104.155 52.211 90.5023 70.4143C76.8498 88.6176 80.5389 114.442 98.7422 128.094C116.945 141.747 142.77 138.058 156.422 119.854Z" fill="#DBDBDB"/>
<path d="M145.847 126.59C163.214 114.226 167.268 90.1241 154.904 72.7579C142.54 55.3916 118.438 51.3368 101.072 63.7012C83.7056 76.0656 79.6508 100.167 92.0151 117.533C104.38 134.9 128.481 138.954 145.847 126.59Z" fill="white"/>
<path opacity="0.5" d="M161.19 87C143.61 97.65 114.72 115.12 98.58 124.7C93.9979 120.841 90.3759 115.969 88 110.47L141.43 61C146.423 63.6273 150.779 67.3167 154.193 71.8086C157.607 76.3006 159.995 81.4859 161.19 87Z" fill="#EBEBEB"/>
<path opacity="0.5" d="M162 96.5C161.866 100.777 161.018 105.002 159.49 109L111.34 131.77C109.244 131.072 107.21 130.199 105.26 129.16C119.81 120.79 146.38 105.5 162 96.5Z" fill="#EBEBEB"/>
<path d="M123.84 59.3501H123.09V65.2001H123.84V59.3501Z" fill="#C7C7C7"/>
<path d="M105.895 63.9441L105.245 64.3191L108.17 69.3853L108.82 69.0103L105.895 63.9441Z" fill="#C7C7C7"/>
<path d="M92.9524 76.5431L92.5774 77.1956L97.6669 80.1206L98.0419 79.4681L92.9524 76.5431Z" fill="#C7C7C7"/>
<path d="M93.5202 94.78H87.6702V95.53H93.5202V94.78Z" fill="#C7C7C7"/>
<path d="M97.3345 109.806L92.2688 112.732L92.6439 113.382L97.7096 110.456L97.3345 109.806Z" fill="#C7C7C7"/>
<path d="M108.162 120.914L105.239 125.981L105.889 126.356L108.812 121.289L108.162 120.914Z" fill="#C7C7C7"/>
<path d="M123.84 125.1H123.09V130.95H123.84V125.1Z" fill="#C7C7C7"/>
<path d="M138.761 120.891L138.112 121.266L141.037 126.332L141.686 125.957L138.761 120.891Z" fill="#C7C7C7"/>
<path d="M149.591 109.805L149.216 110.455L154.282 113.381L154.657 112.731L149.591 109.805Z" fill="#C7C7C7"/>
<path d="M159.26 94.78H153.41V95.53H159.26V94.78Z" fill="#C7C7C7"/>
<path d="M154.279 76.9241L149.214 79.8508L149.589 80.5002L154.655 77.5734L154.279 76.9241Z" fill="#C7C7C7"/>
<path d="M141.044 63.9532L138.122 69.021L138.771 69.3957L141.694 64.3279L141.044 63.9532Z" fill="#C7C7C7"/>
<path d="M124.03 62L125.3 97.75L121.63 97.71L123.03 61.99L124.03 62Z" fill="#C7C7C7"/>
<path d="M146.3 82.6801L122.24 98.0301L120.49 94.8201L145.82 81.8101L146.3 82.6801Z" fill="#A6A6A6"/>
<path d="M124.71 95.1499C124.71 95.3972 124.637 95.6388 124.499 95.8444C124.362 96.05 124.167 96.2102 123.938 96.3048C123.71 96.3994 123.459 96.4242 123.216 96.3759C122.974 96.3277 122.751 96.2086 122.576 96.0338C122.401 95.859 122.282 95.6363 122.234 95.3938C122.186 95.1513 122.211 94.9 122.305 94.6716C122.4 94.4432 122.56 94.248 122.765 94.1106C122.971 93.9733 123.213 93.8999 123.46 93.8999C123.624 93.8986 123.788 93.93 123.94 93.9924C124.092 94.0547 124.23 94.1467 124.347 94.2631C124.463 94.3794 124.555 94.5178 124.618 94.67C124.68 94.8223 124.711 94.9854 124.71 95.1499Z" fill="#C7C7C7"/>
<path d="M195 368.79C193.89 370.2 100.52 374.39 96.08 373.11C95.8642 373.047 95.6562 372.959 95.46 372.85C89.96 370.27 66.36 352.45 62.6 344.94C59.6 338.94 77.39 306.1 83.6 300.47C87.73 296.74 95.39 295.27 95.39 295.27C95.39 295.27 117.01 232.87 130.34 219.81C133.69 216.53 191.59 215.25 201.93 219.97C206.36 221.97 217.13 232.97 217.43 234.97C217.68 237.86 196.09 367.36 195 368.79Z" fill="#37474F"/>
<path d="M195.64 368.79C194.53 370.2 101.17 374.39 96.7201 373.11C96.5055 373.043 96.2979 372.956 96.1001 372.85C105.1 348.66 147.1 235.16 148.3 234.43C149.5 233.7 204.82 234.03 218.07 234.99C218.35 237.86 196.76 367.36 195.64 368.79Z" fill="#263238"/>
<path d="M161.35 224.41C160.42 223.53 159.8 210.85 161.52 208.32C163.44 205.49 185.64 206.89 186.95 209.32C188.26 211.75 188.89 224.41 188.22 224.87C187.55 225.33 183.85 225.76 183.35 224.95C182.85 224.14 182.88 213.66 182.49 213.1C182.1 212.54 166.55 211.54 166.01 212.34C165.47 213.14 166.78 223.74 166.16 224.2C165.54 224.66 162.26 225.27 161.35 224.41Z" fill="#37474F"/>
<path d="M115.502 282.024L108.647 278.812L104.951 286.699L111.806 289.911L115.502 282.024Z" fill="#DBDBDB"/>
<path d="M115.171 288.369L103.997 283.133L99.7787 292.133L110.953 297.37L115.171 288.369Z" fill="#C7C7C7"/>
<path d="M113.41 312.12L94.1 353.32L67.54 340.86L86.84 299.67C90.67 291.52 98.74 287.67 106.84 291.45C114.94 295.23 117.23 304 113.41 312.12Z" fill="#C150F1"/>
<path opacity="0.1" d="M113.41 312.12L94.1 353.32L67.54 340.86L86.84 299.67C90.67 291.52 98.74 287.67 106.84 291.45C114.94 295.23 117.23 304 113.41 312.12Z" fill="black"/>
<path d="M104 293.86C103.934 293.996 103.843 294.117 103.73 294.218C103.617 294.318 103.486 294.396 103.343 294.445C103.201 294.495 103.05 294.516 102.899 294.507C102.749 294.499 102.601 294.461 102.465 294.395C102.329 294.329 102.208 294.237 102.107 294.125C102.007 294.012 101.929 293.881 101.88 293.738C101.83 293.596 101.809 293.445 101.818 293.294C101.826 293.143 101.864 292.996 101.93 292.86C102.063 292.585 102.299 292.375 102.587 292.274C102.875 292.174 103.191 292.192 103.465 292.325C103.74 292.458 103.95 292.694 104.051 292.982C104.151 293.269 104.133 293.585 104 293.86Z" fill="white"/>
<path d="M112.85 309.35C112.754 309.554 112.6 309.724 112.407 309.84C112.214 309.956 111.991 310.013 111.766 310.002C111.541 309.992 111.324 309.915 111.143 309.781C110.961 309.647 110.824 309.463 110.747 309.251C110.67 309.039 110.658 308.81 110.712 308.591C110.766 308.372 110.883 308.175 111.049 308.022C111.215 307.87 111.423 307.771 111.645 307.737C111.868 307.702 112.096 307.735 112.3 307.83C112.436 307.893 112.558 307.983 112.66 308.094C112.761 308.204 112.84 308.334 112.891 308.476C112.942 308.617 112.965 308.767 112.958 308.917C112.951 309.067 112.914 309.214 112.85 309.35Z" fill="white"/>
<path d="M100.61 304.88C100.546 305.015 100.455 305.136 100.344 305.237C100.233 305.337 100.103 305.415 99.9619 305.465C99.8208 305.515 99.6711 305.537 99.5215 305.529C99.3719 305.521 99.2253 305.484 99.09 305.42C98.9548 305.354 98.8337 305.263 98.7339 305.15C98.6341 305.038 98.5574 304.907 98.5081 304.765C98.4589 304.623 98.4382 304.472 98.4471 304.322C98.456 304.172 98.4944 304.025 98.56 303.89C98.6257 303.755 98.7173 303.634 98.8298 303.534C98.9422 303.434 99.0732 303.357 99.2152 303.308C99.3573 303.259 99.5077 303.238 99.6578 303.247C99.8079 303.256 99.9548 303.294 100.09 303.36C100.358 303.495 100.562 303.73 100.659 304.014C100.757 304.298 100.739 304.609 100.61 304.88Z" fill="white"/>
<path d="M97 315.25C96.9377 315.387 96.8486 315.51 96.7379 315.612C96.6273 315.715 96.4974 315.794 96.3557 315.845C96.2141 315.896 96.0637 315.919 95.9133 315.911C95.7629 315.903 95.6156 315.865 95.48 315.8C95.2763 315.704 95.1056 315.55 94.9895 315.357C94.8734 315.164 94.8171 314.941 94.8277 314.716C94.8382 314.491 94.9151 314.274 95.0488 314.092C95.1824 313.911 95.3668 313.774 95.5785 313.697C95.7903 313.62 96.02 313.608 96.2387 313.662C96.4574 313.716 96.6553 313.833 96.8073 313.999C96.9594 314.165 97.0588 314.373 97.0931 314.595C97.1274 314.818 97.095 315.046 97 315.25Z" fill="white"/>
<path d="M81.4601 320.57C81.3978 320.707 81.3087 320.83 81.1981 320.932C81.0874 321.034 80.9575 321.114 80.8159 321.165C80.6743 321.216 80.5239 321.238 80.3735 321.231C80.2231 321.223 80.0757 321.185 79.9401 321.12C79.8048 321.054 79.6838 320.962 79.584 320.85C79.4842 320.738 79.4074 320.607 79.3582 320.465C79.309 320.322 79.2883 320.172 79.2972 320.022C79.3061 319.872 79.3444 319.725 79.4101 319.59C79.4758 319.455 79.5674 319.334 79.6799 319.234C79.7923 319.134 79.9233 319.057 80.0653 319.008C80.2074 318.959 80.3578 318.938 80.5079 318.947C80.658 318.956 80.8048 318.994 80.9401 319.06C81.0743 319.124 81.1943 319.214 81.2933 319.325C81.3922 319.436 81.4681 319.565 81.5165 319.706C81.5649 319.846 81.5849 319.995 81.5752 320.143C81.5655 320.292 81.5264 320.437 81.4601 320.57Z" fill="white"/>
<path d="M84.7401 310.89C84.6744 311.026 84.5827 311.147 84.47 311.248C84.3573 311.348 84.226 311.426 84.0834 311.475C83.9409 311.525 83.7899 311.546 83.6392 311.537C83.4885 311.529 83.341 311.491 83.2051 311.425C83.0692 311.359 82.9475 311.267 82.8471 311.155C82.7467 311.042 82.6694 310.911 82.6197 310.768C82.57 310.626 82.5489 310.475 82.5576 310.324C82.5662 310.173 82.6044 310.026 82.6701 309.89C82.8027 309.615 83.0389 309.405 83.3268 309.305C83.6147 309.204 83.9306 309.222 84.2051 309.355C84.4796 309.488 84.6902 309.724 84.7905 310.012C84.8908 310.299 84.8727 310.615 84.7401 310.89Z" fill="white"/>
<path d="M89.5699 301.26C89.5043 301.396 89.4125 301.517 89.2998 301.618C89.1871 301.718 89.0558 301.796 88.9132 301.845C88.7707 301.895 88.6198 301.916 88.4691 301.907C88.3184 301.899 88.1709 301.86 88.0349 301.795C87.899 301.729 87.7774 301.637 87.6769 301.525C87.5765 301.412 87.4992 301.281 87.4495 301.138C87.3999 300.996 87.3787 300.845 87.3874 300.694C87.396 300.543 87.4343 300.396 87.4999 300.26C87.6326 299.985 87.8688 299.775 88.1566 299.674C88.4445 299.574 88.7604 299.592 89.0349 299.725C89.3094 299.857 89.52 300.094 89.6204 300.381C89.7207 300.669 89.7026 300.985 89.5699 301.26Z" fill="white"/>
<path d="M96.8501 297.4C96.7554 297.605 96.602 297.777 96.4093 297.895C96.2165 298.012 95.9932 298.07 95.7677 298.061C95.5421 298.051 95.3244 297.975 95.1422 297.842C94.9599 297.708 94.8214 297.524 94.7441 297.312C94.6669 297.1 94.6543 296.869 94.7081 296.65C94.7619 296.431 94.8796 296.233 95.0463 296.08C95.2129 295.928 95.4211 295.828 95.6443 295.795C95.8675 295.761 96.0958 295.794 96.3001 295.89C96.5726 296.018 96.7834 296.249 96.8865 296.532C96.9895 296.815 96.9764 297.127 96.8501 297.4Z" fill="white"/>
<path d="M93.0799 308.15C92.9838 308.354 92.8296 308.524 92.6366 308.64C92.4436 308.756 92.2205 308.813 91.9956 308.802C91.7706 308.792 91.5538 308.715 91.3725 308.581C91.1912 308.447 91.0536 308.263 90.977 308.051C90.9003 307.84 90.8881 307.61 90.9419 307.391C90.9957 307.172 91.1131 306.975 91.2792 306.823C91.4454 306.67 91.6528 306.571 91.8754 306.537C92.098 306.502 92.3258 306.535 92.5299 306.63C92.6661 306.693 92.7884 306.783 92.8899 306.894C92.9913 307.005 93.0698 307.134 93.1209 307.276C93.172 307.417 93.1947 307.567 93.1877 307.717C93.1807 307.867 93.144 308.014 93.0799 308.15Z" fill="white"/>
<path d="M108.44 301.73C108.344 301.934 108.19 302.104 107.997 302.22C107.804 302.336 107.581 302.393 107.356 302.382C107.131 302.372 106.914 302.295 106.733 302.161C106.551 302.028 106.414 301.843 106.337 301.631C106.26 301.42 106.248 301.19 106.302 300.971C106.356 300.753 106.473 300.555 106.639 300.403C106.805 300.251 107.013 300.151 107.236 300.117C107.458 300.083 107.686 300.115 107.89 300.21C108.026 300.273 108.149 300.363 108.25 300.474C108.351 300.585 108.43 300.714 108.481 300.856C108.532 300.997 108.555 301.147 108.548 301.297C108.541 301.447 108.504 301.594 108.44 301.73Z" fill="white"/>
<path d="M105 312.37C104.904 312.574 104.75 312.744 104.557 312.86C104.364 312.976 104.141 313.033 103.916 313.022C103.691 313.012 103.474 312.935 103.293 312.801C103.111 312.667 102.974 312.483 102.897 312.271C102.82 312.06 102.808 311.83 102.862 311.611C102.916 311.392 103.033 311.195 103.199 311.042C103.366 310.89 103.573 310.791 103.796 310.757C104.018 310.722 104.246 310.755 104.45 310.85C104.586 310.913 104.709 311.003 104.81 311.114C104.911 311.225 104.99 311.354 105.041 311.496C105.092 311.637 105.115 311.787 105.108 311.937C105.101 312.087 105.064 312.234 105 312.37Z" fill="white"/>
<path d="M89.12 318C89.0239 318.204 88.8696 318.374 88.6766 318.49C88.4836 318.606 88.2606 318.663 88.0356 318.652C87.8106 318.642 87.5938 318.565 87.4125 318.431C87.2313 318.298 87.0936 318.113 87.017 317.901C86.9404 317.69 86.9282 317.46 86.982 317.241C87.0358 317.023 87.1531 316.825 87.3193 316.673C87.4854 316.521 87.6929 316.421 87.9154 316.387C88.138 316.353 88.3658 316.385 88.57 316.48C88.7062 316.543 88.8285 316.633 88.9299 316.744C89.0313 316.855 89.1098 316.984 89.161 317.126C89.2121 317.267 89.2348 317.417 89.2277 317.567C89.2207 317.717 89.1841 317.864 89.12 318Z" fill="white"/>
<path d="M96.4401 331.44C96.344 331.644 96.1897 331.814 95.9967 331.93C95.8037 332.046 95.5806 332.103 95.3557 332.092C95.1307 332.082 94.9139 332.005 94.7326 331.871C94.5513 331.737 94.4137 331.553 94.3371 331.341C94.2604 331.13 94.2482 330.9 94.302 330.681C94.3558 330.462 94.4732 330.265 94.6393 330.113C94.8055 329.96 95.0129 329.861 95.2355 329.827C95.4581 329.792 95.6859 329.825 95.89 329.92C96.0262 329.983 96.1486 330.073 96.25 330.184C96.3514 330.295 96.4299 330.424 96.481 330.566C96.5321 330.707 96.5548 330.857 96.5478 331.007C96.5408 331.157 96.5041 331.304 96.4401 331.44Z" fill="white"/>
<path d="M92.63 339.15C92.5339 339.354 92.3796 339.524 92.1866 339.64C91.9936 339.756 91.7706 339.813 91.5456 339.802C91.3206 339.792 91.1038 339.715 90.9226 339.581C90.7413 339.447 90.6036 339.263 90.527 339.051C90.4504 338.84 90.4382 338.61 90.492 338.391C90.5458 338.172 90.6631 337.975 90.8293 337.823C90.9954 337.67 91.2029 337.571 91.4255 337.537C91.648 337.502 91.8758 337.535 92.08 337.63C92.2162 337.693 92.3385 337.783 92.4399 337.894C92.5413 338.005 92.6199 338.134 92.671 338.276C92.7221 338.417 92.7448 338.567 92.7377 338.717C92.7307 338.867 92.6941 339.014 92.63 339.15Z" fill="white"/>
<path d="M85.82 326.69C85.7567 326.826 85.667 326.948 85.5562 327.05C85.4454 327.151 85.3156 327.23 85.1744 327.281C85.0331 327.332 84.8832 327.355 84.7331 327.348C84.5831 327.341 84.4359 327.304 84.3 327.24C84.0964 327.144 83.9257 326.989 83.8096 326.796C83.6935 326.603 83.6372 326.38 83.6477 326.155C83.6583 325.931 83.7352 325.714 83.8688 325.532C84.0025 325.351 84.1868 325.214 84.3986 325.137C84.6104 325.06 84.8401 325.048 85.0588 325.102C85.2775 325.156 85.4754 325.273 85.6274 325.439C85.7795 325.605 85.8789 325.813 85.9132 326.035C85.9475 326.258 85.9151 326.486 85.82 326.69Z" fill="white"/>
<path d="M75.09 336.46C75.0243 336.596 74.9325 336.718 74.8198 336.818C74.7072 336.918 74.5758 336.996 74.4333 337.045C74.2907 337.095 74.1398 337.116 73.9891 337.108C73.8384 337.099 73.6909 337.061 73.555 336.995C73.419 336.929 73.2974 336.838 73.1969 336.725C73.0965 336.612 73.0192 336.481 72.9696 336.338C72.9199 336.196 72.8988 336.045 72.9074 335.894C72.9161 335.743 72.9543 335.596 73.02 335.46C73.1526 335.185 73.3888 334.975 73.6767 334.875C73.9645 334.774 74.2805 334.792 74.555 334.925C74.8295 335.058 75.04 335.294 75.1404 335.582C75.2407 335.87 75.2226 336.185 75.09 336.46Z" fill="white"/>
<path d="M93.36 324.54C93.2639 324.744 93.1096 324.914 92.9166 325.03C92.7236 325.147 92.5006 325.203 92.2756 325.192C92.0506 325.182 91.8338 325.105 91.6525 324.971C91.4713 324.838 91.3336 324.653 91.257 324.441C91.1804 324.23 91.1682 324 91.222 323.781C91.2758 323.563 91.3931 323.365 91.5593 323.213C91.7254 323.061 91.9328 322.961 92.1554 322.927C92.378 322.893 92.6058 322.925 92.81 323.02C92.9462 323.083 93.0685 323.173 93.1699 323.284C93.2713 323.395 93.3498 323.524 93.4009 323.666C93.4521 323.807 93.4747 323.957 93.4677 324.107C93.4607 324.257 93.4241 324.404 93.36 324.54Z" fill="white"/>
<path d="M89.5499 333C89.4538 333.204 89.2995 333.374 89.1065 333.49C88.9136 333.606 88.6905 333.663 88.4655 333.652C88.2406 333.642 88.0238 333.565 87.8425 333.431C87.6612 333.298 87.5236 333.113 87.4469 332.901C87.3703 332.69 87.3581 332.46 87.4119 332.241C87.4657 332.023 87.5831 331.825 87.7492 331.673C87.9153 331.521 88.1228 331.421 88.3454 331.387C88.568 331.353 88.7957 331.385 88.9999 331.48C89.1361 331.543 89.2584 331.633 89.3598 331.744C89.4613 331.855 89.5398 331.984 89.5909 332.126C89.642 332.267 89.6647 332.417 89.6577 332.567C89.6506 332.717 89.614 332.864 89.5499 333Z" fill="white"/>
<path d="M85.62 341.39C85.5239 341.594 85.3696 341.764 85.1766 341.88C84.9836 341.996 84.7606 342.053 84.5356 342.042C84.3106 342.032 84.0938 341.955 83.9125 341.821C83.7313 341.687 83.5936 341.503 83.517 341.291C83.4404 341.08 83.4282 340.85 83.482 340.631C83.5358 340.412 83.6531 340.215 83.8193 340.063C83.9854 339.91 84.1929 339.811 84.4154 339.777C84.638 339.742 84.8658 339.775 85.07 339.87C85.2062 339.933 85.3285 340.023 85.4299 340.134C85.5313 340.245 85.6098 340.374 85.661 340.516C85.7121 340.657 85.7348 340.807 85.7277 340.957C85.7207 341.107 85.6841 341.254 85.62 341.39Z" fill="white"/>
<path d="M89.0701 347.74C88.94 348.013 88.7075 348.224 88.423 348.327C88.1385 348.43 87.8248 348.417 87.5501 348.29C87.4142 348.224 87.2925 348.132 87.1921 348.02C87.0916 347.907 87.0144 347.776 86.9647 347.633C86.915 347.491 86.8939 347.34 86.9025 347.189C86.9112 347.038 86.9494 346.891 87.0151 346.755C87.0807 346.619 87.1725 346.497 87.2852 346.397C87.3979 346.296 87.5292 346.219 87.6718 346.169C87.8143 346.12 87.9652 346.099 88.1159 346.107C88.2666 346.116 88.4142 346.154 88.5501 346.22C88.818 346.355 89.0223 346.59 89.1195 346.874C89.2167 347.158 89.1989 347.469 89.0701 347.74Z" fill="white"/>
<path d="M78.66 328.51C78.5274 328.784 78.2912 328.995 78.0033 329.095C77.7155 329.196 77.3995 329.177 77.125 329.045C76.8505 328.912 76.64 328.676 76.5396 328.388C76.4393 328.1 76.4574 327.784 76.59 327.51C76.6557 327.374 76.7475 327.252 76.8602 327.152C76.9728 327.051 77.1042 326.974 77.2467 326.924C77.3893 326.875 77.5402 326.854 77.6909 326.862C77.8416 326.871 77.9891 326.909 78.125 326.975C78.261 327.04 78.3826 327.132 78.4831 327.245C78.5835 327.358 78.6608 327.489 78.7104 327.631C78.7601 327.774 78.7812 327.925 78.7726 328.076C78.7639 328.226 78.7257 328.374 78.66 328.51Z" fill="white"/>
<path d="M82.0899 334.66C81.9938 334.864 81.8396 335.034 81.6466 335.15C81.4536 335.266 81.2305 335.323 81.0056 335.312C80.7806 335.302 80.5638 335.225 80.3825 335.091C80.2012 334.957 80.0636 334.773 79.987 334.561C79.9103 334.35 79.8981 334.12 79.9519 333.901C80.0057 333.682 80.1231 333.485 80.2892 333.332C80.4554 333.18 80.6628 333.081 80.8854 333.047C81.108 333.012 81.3358 333.045 81.54 333.14C81.6761 333.203 81.7985 333.293 81.8999 333.404C82.0013 333.515 82.0798 333.644 82.1309 333.786C82.182 333.927 82.2047 334.077 82.1977 334.227C82.1907 334.377 82.154 334.524 82.0899 334.66Z" fill="white"/>
<path d="M95.8099 346.17C95.7138 346.374 95.5595 346.544 95.3666 346.66C95.1736 346.776 94.9505 346.833 94.7255 346.822C94.5006 346.812 94.2838 346.735 94.1025 346.601C93.9212 346.467 93.7836 346.283 93.7069 346.071C93.6303 345.86 93.6181 345.63 93.6719 345.411C93.7257 345.192 93.8431 344.995 94.0092 344.843C94.1753 344.69 94.3828 344.591 94.6054 344.557C94.828 344.522 95.0557 344.555 95.2599 344.65C95.5331 344.78 95.7441 345.012 95.847 345.297C95.95 345.582 95.9366 345.895 95.8099 346.17Z" fill="white"/>
<path d="M78.5101 342.89C78.414 343.094 78.2597 343.264 78.0668 343.38C77.8738 343.496 77.6507 343.553 77.4257 343.542C77.2008 343.532 76.984 343.455 76.8027 343.321C76.6214 343.187 76.4838 343.003 76.4071 342.791C76.3305 342.58 76.3183 342.35 76.3721 342.131C76.4259 341.912 76.5433 341.715 76.7094 341.563C76.8755 341.41 77.083 341.311 77.3056 341.277C77.5282 341.242 77.7559 341.275 77.9601 341.37C78.0963 341.433 78.2186 341.523 78.32 341.634C78.4215 341.745 78.5 341.874 78.5511 342.016C78.6022 342.157 78.6249 342.307 78.6179 342.457C78.6108 342.607 78.5742 342.754 78.5101 342.89Z" fill="white"/>
<path d="M103.7 329.74C103.604 329.944 103.45 330.114 103.257 330.23C103.064 330.347 102.841 330.403 102.616 330.392C102.391 330.382 102.174 330.305 101.993 330.171C101.811 330.038 101.674 329.853 101.597 329.641C101.52 329.43 101.508 329.2 101.562 328.981C101.616 328.763 101.733 328.565 101.899 328.413C102.065 328.261 102.273 328.161 102.496 328.127C102.718 328.093 102.946 328.125 103.15 328.22C103.286 328.283 103.409 328.373 103.51 328.484C103.611 328.595 103.69 328.724 103.741 328.866C103.792 329.007 103.815 329.157 103.808 329.307C103.801 329.457 103.764 329.604 103.7 329.74Z" fill="white"/>
<path d="M99.9 337.86C99.8039 338.064 99.6496 338.234 99.4566 338.35C99.2637 338.466 99.0406 338.523 98.8156 338.512C98.5907 338.502 98.3739 338.425 98.1926 338.291C98.0113 338.157 97.8737 337.973 97.797 337.761C97.7204 337.55 97.7082 337.32 97.762 337.101C97.8158 336.882 97.9332 336.685 98.0993 336.532C98.2654 336.38 98.4729 336.281 98.6955 336.247C98.9181 336.212 99.1458 336.245 99.35 336.34C99.4862 336.403 99.6085 336.493 99.7099 336.604C99.8114 336.715 99.8899 336.844 99.941 336.986C99.9921 337.127 100.015 337.277 100.008 337.427C100.001 337.577 99.9641 337.724 99.9 337.86Z" fill="white"/>
<path d="M100.63 323.06C100.534 323.263 100.38 323.434 100.187 323.55C99.9936 323.666 99.7706 323.723 99.5456 323.712C99.3206 323.702 99.1038 323.625 98.9226 323.491C98.7413 323.357 98.6036 323.173 98.527 322.961C98.4504 322.749 98.4382 322.52 98.492 322.301C98.5458 322.082 98.6631 321.884 98.8293 321.732C98.9954 321.58 99.2029 321.481 99.4255 321.447C99.648 321.412 99.8758 321.445 100.08 321.54C100.216 321.603 100.338 321.693 100.44 321.804C100.541 321.914 100.62 322.044 100.671 322.185C100.722 322.327 100.745 322.477 100.738 322.627C100.731 322.777 100.694 322.924 100.63 323.06Z" fill="white"/>
<path d="M108.65 320.53C108.554 320.733 108.4 320.904 108.207 321.02C108.014 321.136 107.791 321.193 107.566 321.182C107.341 321.172 107.124 321.095 106.943 320.961C106.761 320.827 106.624 320.643 106.547 320.431C106.47 320.219 106.458 319.99 106.512 319.771C106.566 319.552 106.683 319.354 106.849 319.202C107.015 319.05 107.223 318.951 107.445 318.917C107.668 318.882 107.896 318.915 108.1 319.01C108.236 319.073 108.359 319.163 108.46 319.274C108.561 319.384 108.64 319.514 108.691 319.655C108.742 319.797 108.765 319.947 108.758 320.097C108.751 320.247 108.714 320.394 108.65 320.53Z" fill="white"/>
<path d="M64.43 341.45C66.67 352.45 91.11 364.31 92.78 364.26C94.45 364.21 110.67 324.06 110.67 324.06C110.67 324.06 90.9 317.56 82 306C82 306 63.73 338 64.43 341.45Z" fill="#455A64"/>
<path d="M253.09 432.6H158.5C152.74 410.6 147.45 391.19 144.08 378.93C141.96 371.22 140.6 366.33 140.34 365.41C140.326 365.356 140.309 365.302 140.29 365.25H238.66L241.66 379.04C242.85 384.62 244.36 391.66 246.1 399.71C246.24 400.41 246.4 401.12 246.55 401.86C248.53 411.08 250.76 421.53 253.09 432.6Z" fill="#455A64"/>
<path d="M172.84 432.6H171.06C166.22 414.766 161.497 396.9 156.89 379L156.51 377.49C156.42 377.08 157.03 376.89 157.15 377.3C157.32 377.87 157.49 378.43 157.65 379C162.87 396.82 167.89 414.7 172.84 432.6Z" fill="#263238"/>
<path d="M231 365.41C230.229 370.085 229.105 374.694 227.64 379.2C226.54 382.78 225.21 386.65 223.71 390.64C223.39 391.55 223.03 392.43 222.71 393.33C217.94 405.48 211.71 417.86 205.27 423.74H205.22C204.465 424.462 203.641 425.108 202.76 425.67L197.28 429.06C197.286 429.086 197.286 429.114 197.28 429.14C197.28 429.47 197.03 430.66 196.72 432.58H104.39C102.03 411.2 106.95 391.2 111.24 378.66C112.741 374.127 114.532 369.694 116.6 365.39L231 365.41Z" fill="#455A64"/>
<path d="M220 418.53C214.198 421.716 208.222 424.574 202.1 427.09C200.47 427.79 198.84 428.48 197.18 429.15C197.08 429.15 196.98 429.24 196.88 429.27C195.453 429.863 194.023 430.433 192.59 430.98C191.19 431.52 189.8 432.08 188.38 432.6H185.26C187.41 431.52 189.66 430.6 191.85 429.6C194.89 428.267 197.94 426.933 201 425.6C202.39 425 203.78 424.39 205.16 423.77H205.21C209.98 421.65 214.73 419.53 219.64 417.77C220.13 417.53 220.45 418.27 220 418.53Z" fill="#263238"/>
<path d="M197.23 429.22C197.23 429.94 197.17 431.13 197.03 432.6H196.03C196.35 431.22 196.64 430.09 196.92 429.27C196.917 429.24 196.917 429.21 196.92 429.18C196.97 429.05 197.15 429.04 197.19 429.18C197.19 429.18 197.23 429.19 197.23 429.22Z" fill="#263238"/>
<path d="M125.53 371.16C124.28 373.66 123.15 376.16 122.1 378.78C115.732 394.439 113.327 411.428 115.1 428.24C115.27 429.7 115.48 431.15 115.7 432.6H114.1C113.468 428.377 113.101 424.119 113 419.85C112.67 405.73 115.42 391.708 121.06 378.76C122.24 376.07 123.55 373.43 124.98 370.86C125 370.824 125.026 370.792 125.058 370.766C125.09 370.74 125.127 370.721 125.167 370.709C125.206 370.698 125.247 370.694 125.288 370.698C125.329 370.703 125.369 370.715 125.405 370.735C125.441 370.754 125.473 370.781 125.499 370.813C125.525 370.845 125.544 370.882 125.555 370.921C125.567 370.961 125.571 371.002 125.566 371.043C125.562 371.084 125.55 371.124 125.53 371.16Z" fill="#263238"/>
<path d="M194.91 403.48C195 399.92 195.25 396.37 195.43 392.82C195.84 384.44 196.17 376.01 196.95 367.66C196.95 367.591 196.978 367.525 197.026 367.476C197.075 367.427 197.141 367.4 197.21 367.4C197.279 367.4 197.345 367.427 197.394 367.476C197.443 367.525 197.47 367.591 197.47 367.66C197.57 374.14 197.32 380.66 197.19 387.13C197.12 390.37 197.03 393.62 196.94 396.86C196.765 399.954 196.745 403.054 196.88 406.15C197.05 408.49 197.56 413.03 200.61 413.31C203.49 413.58 205.76 410.48 206.48 408.21C208.3 402.43 208.95 396.21 209.54 390.21C209.89 386.66 210.3 372.21 210.11 368.59C210.11 368.36 210.45 368.37 210.47 368.59C210.67 372.25 211.17 375.89 211.29 379.59C211.41 383.29 211.42 386.91 211.19 390.59C210.96 394.09 210.67 397.59 210.14 401.08C209.784 404.252 209.028 407.367 207.89 410.35C206.83 412.81 205.01 415.07 202.25 415.61C201.919 415.666 201.585 415.699 201.25 415.71C201.25 416.46 201.11 417.22 201.06 417.96C200.98 419.14 200.83 420.3 200.67 421.47C200.509 422.618 200.271 423.753 199.96 424.87C199.709 425.999 199.305 427.089 198.76 428.11C198.739 428.142 198.709 428.166 198.673 428.179C198.638 428.193 198.599 428.194 198.563 428.184C198.526 428.174 198.493 428.153 198.47 428.124C198.446 428.094 198.432 428.058 198.43 428.02C198.403 426.896 198.497 425.773 198.71 424.67C198.87 423.53 199.03 422.37 199.26 421.25C199.49 420.13 199.7 419.02 199.93 417.91C200.08 417.17 200.18 416.4 200.32 415.65C199.429 415.493 198.591 415.118 197.881 414.558C197.17 413.997 196.61 413.27 196.25 412.44C194.94 409.67 194.84 406.44 194.91 403.48Z" fill="#263238"/>
<path d="M193.21 242.7C205.14 257.65 251.92 310.7 277.92 315.65C295.43 319 351.68 290.37 364 280C369 275.76 340.87 233.79 334 235.48C326.56 237.31 286.08 264.22 280.82 263.91C275.56 263.6 234.13 240.31 209 230C193.9 223.76 186.49 234.29 193.21 242.7Z" fill="#F7A9A0"/>
<path d="M348.55 290C359.37 285.83 392.18 262.82 397.63 256.84C403.08 250.86 417.52 232.55 413.36 227.91C409.2 223.27 404.56 228.3 404.56 228.3C404.56 228.3 410.03 218.85 404.83 215.3C400.68 212.47 393.75 219.2 393.75 219.2C393.75 219.2 399.2 208.53 393.59 205.68C388.48 203.08 382.85 212.22 382.85 212.22C382.85 212.22 386.5 202.83 381.1 201.28C374.6 199.4 368.27 215.65 361.76 221.8C360.28 223.19 316.61 244.62 316.61 244.62L348.55 290Z" fill="#F7A9A0"/>
<path d="M382.61 211.75C376.61 223.44 373.81 228.1 363.61 235.58C363.41 235.72 363.61 236.05 363.81 235.92C374.43 229.5 378.17 224.21 383.17 211.92C383.44 211.35 382.89 211.21 382.61 211.75Z" fill="#263238"/>
<path d="M393.63 219.2C387.68 231.2 383.13 235.71 373.06 244.32C372.91 244.44 373.06 244.7 373.26 244.59C383.85 236.96 389.69 232.05 394.06 219.3C394.26 218.73 393.9 218.66 393.63 219.2Z" fill="#263238"/>
<path d="M404.06 228.73C397.46 239.91 392.85 245.41 381.99 252.51C381.934 252.542 381.894 252.594 381.877 252.656C381.86 252.718 381.868 252.784 381.9 252.84C381.932 252.896 381.985 252.936 382.046 252.953C382.108 252.97 382.174 252.962 382.23 252.93C394 246.76 399.82 239.93 404.38 228.93C404.69 228.22 404.47 228 404.06 228.73Z" fill="#263238"/>
<path d="M447.63 261.74C418.92 270.12 390.63 278.51 363.13 286.89C346.66 249.89 344.23 212.89 332.95 175.89C361.7 167.5 389.95 159.12 417.56 150.73C434 187.72 436.38 224.73 447.63 261.74Z" fill="white"/>
<path d="M447.63 261.74C433.317 265.993 419.137 270.24 405.09 274.48C391.043 278.72 377.1 282.956 363.26 287.19L362.98 287.28L362.84 286.98C346.3 249.98 343.84 212.98 332.47 175.98C332.42 175.82 332.38 175.66 332.33 175.5L332.8 175.36C361.55 167.02 389.8 158.68 417.41 150.36L417.74 150.26L417.89 150.6C426.09 169.15 430.76 187.7 434.79 206.25C438.82 224.8 442.09 243.25 447.63 261.74ZM447.63 261.74C441.92 243.23 438.42 224.74 434.28 206.2C430.14 187.66 425.46 169.27 417.28 150.81L417.75 151.05C390.18 159.48 361.89 167.92 333.14 176.35L333.47 175.73C344.7 212.73 347.07 249.78 363.47 286.8L363.06 286.59C376.82 282.443 390.75 278.296 404.85 274.15C418.95 270.003 433.21 265.866 447.63 261.74Z" fill="#263238"/>
<path d="M346.54 192C362.76 187.333 378.883 182.667 394.91 178C395.19 178.95 395.47 179.9 395.74 180.85C379.68 185.517 363.51 190.183 347.23 194.85C347 193.94 346.77 193 346.54 192Z" fill="#DBDBDB"/>
<path d="M348.26 199.24C364.56 194.573 380.787 189.907 396.94 185.24L397.69 188.09C381.517 192.757 365.257 197.423 348.91 202.09C348.7 201.14 348.48 200.19 348.26 199.24Z" fill="#DBDBDB"/>
<path d="M349.88 206.44C366.24 201.773 382.543 197.107 398.79 192.44C399.02 193.44 399.26 194.34 399.48 195.29C383.22 199.957 366.887 204.623 350.48 209.29C350.3 208.34 350.09 207.39 349.88 206.44Z" fill="#DBDBDB"/>
<path d="M351.44 213.63C375.44 206.803 399.367 199.973 423.22 193.14L423.91 196C400.07 202.82 376.06 209.65 352.05 216.48C351.84 215.53 351.64 214.58 351.44 213.63Z" fill="#DBDBDB"/>
<path d="M353 220.83C377 213.997 400.983 207.167 424.95 200.34C425.17 201.29 425.39 202.24 425.6 203.19C401.66 210.023 377.66 216.853 353.6 223.68C353.37 222.73 353.17 221.78 353 220.83Z" fill="#DBDBDB"/>
<path d="M354.51 228L426.51 207.52C426.72 208.52 426.93 209.42 427.13 210.37C403.13 217.2 379.13 224.02 355.13 230.85C354.92 229.92 354.72 229 354.51 228Z" fill="#DBDBDB"/>
<path d="M356.1 235.22C380.027 228.387 404.027 221.557 428.1 214.73C428.31 215.73 428.51 216.63 428.71 217.58C404.71 224.407 380.73 231.237 356.77 238.07C356.53 237.12 356.31 236.17 356.1 235.22Z" fill="#DBDBDB"/>
<path d="M357.77 242.41C381.6 235.58 405.6 228.76 429.61 221.93C429.82 222.88 430.02 223.83 430.22 224.78C406.22 231.613 382.303 238.44 358.47 245.26C358.23 244.31 358 243.36 357.77 242.41Z" fill="#DBDBDB"/>
<path d="M359.57 249.61C383.27 242.777 407.133 235.947 431.16 229.12C431.37 230.07 431.57 231.02 431.78 231.97C407.82 238.803 384.003 245.633 360.33 252.46C360.07 251.51 359.82 250.56 359.57 249.61Z" fill="#DBDBDB"/>
<path d="M361.53 256.8C385.05 249.98 408.793 243.153 432.76 236.32C432.98 237.32 433.19 238.22 433.42 239.17C409.54 246 385.8 252.83 362.36 259.66C362.08 258.7 361.8 257.75 361.53 256.8Z" fill="#DBDBDB"/>
<path d="M363.68 264C387.013 257.173 410.603 250.343 434.45 243.51C434.68 244.51 434.91 245.41 435.15 246.36C411.39 253.193 387.873 260.023 364.6 266.85C364.29 265.9 364 265 363.68 264Z" fill="#DBDBDB"/>
<path d="M366.07 271.2C389.15 264.373 412.55 257.543 436.27 250.71C436.52 251.66 436.77 252.61 437.03 253.56C413.43 260.387 390.117 267.217 367.09 274.05L366.07 271.2Z" fill="#DBDBDB"/>
<path d="M403.17 192.9C402.1 185.13 400.79 177.36 399.04 169.59C404.51 175.16 409.74 180.73 414.83 186.3L413.33 187.67C409.77 183.75 406.14 179.83 402.4 175.91C403.49 181.46 404.4 187 405.15 192.55L403.17 192.9Z" fill="#3CCF4D"/>
<path d="M401.74 188.86L400.58 187.27C404.14 184.603 407.667 181.936 411.16 179.27L412.36 180.86C408.86 183.54 405.32 186.206 401.74 188.86Z" fill="#3CCF4D"/>
<path d="M398.62 166.54C396.975 167.759 395.516 169.21 394.29 170.85C391.873 174.172 390.609 178.193 390.69 182.3C390.707 184.292 391.143 186.258 391.97 188.07C392.821 189.818 394.058 191.351 395.588 192.551C397.117 193.751 398.899 194.589 400.8 195C404.62 195.75 408.71 194.38 412.13 192.12C415.632 190.028 418.286 186.771 419.63 182.92C420.261 181.031 420.458 179.024 420.205 177.048C419.952 175.072 419.257 173.179 418.17 171.51C416.973 169.859 415.426 168.494 413.64 167.51C411.856 166.478 409.871 165.841 407.82 165.64C405.782 165.434 403.725 165.718 401.82 166.47C399.929 167.249 398.187 168.349 396.67 169.72C397.372 168.963 398.127 168.258 398.93 167.61C399.766 166.988 400.66 166.449 401.6 166C403.532 165.061 405.663 164.608 407.81 164.68C410.066 164.79 412.273 165.383 414.28 166.418C416.288 167.453 418.051 168.906 419.45 170.68C420.79 172.513 421.653 174.65 421.96 176.9C422.276 179.121 422.102 181.384 421.45 183.53C419.992 187.841 417.055 191.497 413.16 193.85C411.277 195.091 409.212 196.033 407.04 196.64C404.86 197.26 402.565 197.359 400.34 196.93C398.168 196.472 396.146 195.475 394.46 194.03C392.791 192.61 391.453 190.842 390.54 188.85C388.937 184.722 388.962 180.14 390.61 176.03C392.117 172.044 394.944 168.695 398.62 166.54Z" fill="#3CCF4D"/>
<path d="M409.59 174C408.443 172.427 407.273 170.857 406.08 169.29L407.65 168.13C408.85 169.697 410.03 171.267 411.19 172.84L409.59 174Z" fill="#3CCF4D"/>
<path d="M407 173.51L405.81 171.87L410.31 168.63C410.72 169.18 411.12 169.73 411.53 170.27L407 173.51Z" fill="#3CCF4D"/>
<path d="M316.61 244.63C316.61 244.63 327.24 233.74 332.02 228.33C336.8 222.92 348.22 205.75 354.42 206.16C361.42 206.62 356.36 224.71 347.89 234.43C347.89 234.43 359.14 252.37 351.45 262.1C349.78 264.2 337.66 270.86 334.65 270.24L316.61 244.63Z" fill="#F7A9A0"/>
<path d="M347.38 235.73C352.01 242.55 355.23 252.94 351.91 260.47C351.894 260.513 351.894 260.56 351.91 260.602C351.926 260.645 351.957 260.68 351.997 260.702C352.037 260.724 352.084 260.731 352.128 260.721C352.173 260.712 352.212 260.686 352.24 260.65C356.89 253.06 353.24 241 348.78 235.15C347.91 234 346.18 234 347.38 235.73Z" fill="#263238"/>
<path d="M316.61 244.63L348.55 290C348.644 292.881 347.854 295.721 346.286 298.14C344.718 300.558 342.448 302.439 339.78 303.53C330.25 307.7 290.83 321.92 275.22 316.65C259.61 311.38 215.08 273 195.87 247.49C176.66 221.98 205.05 227.05 210.46 229.49C215.87 231.93 279.38 261.86 281.64 261.81C283.9 261.76 298.64 250.55 305.64 247.07C312.64 243.59 316.61 244.63 316.61 244.63Z" fill="#C150F1"/>
<path opacity="0.1" d="M298 316.3C289 317.95 280.67 318.49 275.24 316.65C259.62 311.37 215.09 273.01 195.88 247.48C194.66 245.87 193.64 244.37 192.78 243.01L298 316.3Z" fill="black"/>
<path d="M336.11 299.37C333.18 295.78 330.74 291.79 328.19 287.95C325.64 284.11 323.19 280.37 320.72 276.55C315.72 268.86 310.55 261.22 306.08 253.24C306.066 253.203 306.065 253.163 306.077 253.126C306.089 253.089 306.114 253.057 306.147 253.036C306.18 253.015 306.219 253.006 306.258 253.01C306.297 253.014 306.333 253.032 306.36 253.06C312.13 260.33 317.16 268.19 322.22 275.92C324.76 279.793 327.243 283.7 329.67 287.64C332.134 291.375 334.388 295.244 336.42 299.23C336.51 299.42 336.23 299.52 336.11 299.37Z" fill="#263238"/>
<g opacity="0.1">
<path d="M325.87 308.77L322.26 310C322.071 308.675 321.981 307.338 321.99 306C321.99 303.47 322.19 301 322.16 298.59C322.168 296.179 321.934 293.774 321.46 291.41C320.977 289.093 320.165 286.857 319.05 284.77C318.78 284.25 318.47 283.77 318.18 283.27C317.89 282.77 317.56 282.35 317.23 281.89C316.52 280.98 315.78 280.04 315.01 279.12L310.41 273.53C308.85 271.65 307.31 269.76 305.79 267.83C304.27 265.9 302.79 263.9 301.42 261.83C299.998 259.69 298.77 257.428 297.75 255.07C297.4 254.208 297.099 253.327 296.85 252.43C298.14 251.58 299.41 250.76 300.61 250C301.006 251.079 301.463 252.134 301.98 253.16C303.084 255.181 304.303 257.138 305.63 259.02C308.31 262.92 311.13 266.85 313.96 270.82C315.37 272.82 316.82 274.82 318.14 276.89C318.8 277.94 319.46 279 320.05 280.15C320.34 280.73 320.63 281.3 320.89 281.94C321.15 282.58 321.34 283.16 321.52 283.78C323 288.7 323.22 293.66 323.79 298.51C324.176 301.985 324.872 305.419 325.87 308.77Z" fill="black"/>
<path d="M313.25 312.68C312.25 312.96 311.31 313.23 310.32 313.49C309.12 309.35 309.05 305.27 308.96 301.24V295C308.96 294 308.96 292.95 308.88 291.94C308.858 290.961 308.761 289.984 308.59 289.02C308.555 288.802 308.498 288.587 308.42 288.38L308.17 287.7L307.87 287.04C307.76 286.82 307.63 286.61 307.52 286.39C307.012 285.528 306.408 284.726 305.72 284C304.283 282.54 302.65 281.284 300.87 280.27C299.98 279.73 299.06 279.27 298.13 278.78L295.32 277.35C293.309 276.413 291.493 275.103 289.97 273.49C289.593 273.039 289.258 272.553 288.97 272.04C288.82 271.78 288.69 271.5 288.56 271.23L288.25 270.43C287.89 269.375 287.619 268.291 287.44 267.19C287.1 265.061 286.973 262.904 287.06 260.75C287.06 260.12 287.12 259.49 287.17 258.86L289.17 257.54C289.17 258.61 289.17 259.67 289.26 260.73C289.342 262.744 289.569 264.749 289.94 266.73C290.134 267.681 290.394 268.616 290.72 269.53L290.98 270.19C291.08 270.38 291.15 270.58 291.26 270.78C291.469 271.173 291.706 271.551 291.97 271.91C293.193 273.45 294.619 274.815 296.21 275.97C297.84 277.22 299.61 278.35 301.36 279.5C303.168 280.6 304.89 281.837 306.51 283.2C307.341 283.908 308.101 284.695 308.78 285.55C309.122 285.989 309.439 286.446 309.73 286.92L310.14 287.65C310.275 287.918 310.392 288.196 310.49 288.48C310.838 289.534 311.082 290.619 311.22 291.72C311.39 292.78 311.48 293.84 311.57 294.89C311.74 296.99 311.84 299.07 311.98 301.13C312.12 303.19 312.27 305.25 312.47 307.27C312.607 309.089 312.868 310.896 313.25 312.68Z" fill="black"/>
</g>
<path d="M106.46 385.26C106.56 385.39 243.03 379.01 243.92 378.17C244.33 377.78 246.1 370.01 244.01 359.22C237.74 326.87 218.95 260.79 202.38 232.83C198.24 225.83 179.58 215.54 166.04 228.76C138.59 255.56 117.04 323.76 108.55 361.22C104.39 379.53 105.9 384.48 106.46 385.26Z" fill="#C150F1"/>
<g opacity="0.1">
<path d="M243.4 356.13C242.99 356.13 242.58 356.13 242.18 356.19C238.301 356.561 234.447 357.165 230.64 358C222.79 359.6 214.8 361.4 206.75 363.19C202.75 364.08 198.69 365.02 194.54 365.7C192.46 366.03 190.37 366.36 188.2 366.52C187.1 366.59 186.02 366.67 184.84 366.65C183.66 366.63 182.66 366.54 181.57 366.41C172.92 365.48 165.05 362.55 157.1 360.24C149.15 357.93 140.95 356.35 133.65 356.38C131.85 356.38 129.91 356.53 127.96 356.71C126.01 356.89 124.06 357.18 122.09 357.47C118.16 358.1 114.19 358.89 110.23 359.75L108.8 360.07C109.28 357.97 109.8 355.77 110.37 353.5C113.802 352.366 117.294 351.421 120.83 350.67C122.91 350.217 125.023 349.857 127.17 349.59C128.25 349.46 129.33 349.35 130.42 349.29C131.552 349.215 132.688 349.215 133.82 349.29C138.238 349.59 142.567 350.68 146.6 352.51C150.54 354.15 154.22 356.09 158.02 357.66C161.773 359.266 165.68 360.486 169.68 361.3C173.613 362.076 177.637 362.288 181.63 361.93C182.63 361.86 183.63 361.71 184.54 361.58C185.45 361.45 186.37 361.21 187.31 360.99C189.21 360.48 191.15 359.99 193.08 359.37L204.85 355.88C208.79 354.69 212.77 353.53 216.78 352.44C220.79 351.35 224.87 350.38 229.04 349.61C233.218 348.817 237.458 348.396 241.71 348.35C242.33 351.07 242.89 353.68 243.4 356.13Z" fill="black"/>
<path d="M237.45 330.76C234.671 329.772 231.832 328.964 228.95 328.34C227.341 328.007 225.71 327.793 224.07 327.7H222.88C222.51 327.7 222.15 327.7 221.78 327.75C221.027 327.823 220.278 327.943 219.54 328.11C216.337 329.002 213.269 330.324 210.42 332.04C207.42 333.76 204.42 335.76 201.52 337.75C198.608 339.838 195.543 341.704 192.35 343.33C190.699 344.154 188.975 344.824 187.2 345.33C186.291 345.574 185.37 345.768 184.44 345.91L183 346C182.491 346.035 181.979 346.035 181.47 346C179.598 345.85 177.746 345.516 175.94 345C174.18 344.56 172.47 344 170.78 343.45C167.39 342.33 164.08 341.12 160.78 339.97C157.48 338.82 154.17 337.7 150.89 336.68C147.702 335.635 144.439 334.832 141.13 334.28C139.584 334.047 138.015 334.013 136.46 334.18C134.824 334.366 133.203 334.67 131.61 335.09C128.297 335.974 125.043 337.07 121.87 338.37C119.01 339.53 116.163 340.77 113.33 342.09C113.64 340.94 113.96 339.78 114.33 338.6C116.33 337.38 118.36 336.227 120.42 335.14C123.636 333.436 126.979 331.984 130.42 330.8C132.204 330.209 134.029 329.751 135.88 329.43C137.818 329.092 139.792 329.018 141.75 329.21C149.35 329.97 156.04 332.65 162.62 335.28L172.38 339.28C173.99 339.95 175.61 340.58 177.21 341.19C178.748 341.796 180.329 342.287 181.94 342.66C182.31 342.738 182.684 342.791 183.06 342.82L184.28 342.87H185.51C185.93 342.87 186.34 342.79 186.75 342.75C188.427 342.529 190.075 342.12 191.66 341.53C194.876 340.243 197.903 338.527 200.66 336.43C202.07 335.43 203.41 334.26 204.78 333.15L208.86 329.7C211.63 327.44 214.61 325.14 218.41 323.92C219.366 323.603 220.351 323.381 221.35 323.26C221.86 323.19 222.35 323.18 222.89 323.15H224.34C226.222 323.283 228.089 323.578 229.92 324.03C232.079 324.544 234.197 325.212 236.26 326.03L237.45 330.76Z" fill="black"/>
</g>
<path d="M151.71 232C107.16 250.89 72.57 267.34 77.59 284.46C79.59 291.18 91.19 309.31 106.13 309.29C117.87 309.29 138.8 290.45 162.65 257.5C175 240.45 179.84 220.06 151.71 232Z" fill="#C150F1"/>
<path d="M159.61 266.54C157.71 268.11 155.82 269.72 153.97 271.36L155.16 269.98C158.35 266.2 161.5 262.39 164.65 258.58C164.71 258.5 164.58 258.4 164.51 258.48C158.51 264.86 152.51 271.18 146.44 277.54C140.37 283.9 124.54 300.01 120.69 303.17C120.61 303.24 120.69 303.37 120.79 303.31C124.27 300.59 134.04 292.41 137.16 289.36C141.873 284.746 146.403 279.986 150.75 275.08C153.922 272.466 156.95 269.682 159.82 266.74C159.93 266.63 159.74 266.43 159.61 266.54Z" fill="#263238"/>
<path d="M93.5199 298.93C74.0399 290.93 61.4199 231.84 56.6399 192.07C55.7299 184.5 115.57 177.21 115.64 185.36C115.88 231.88 114.86 307.67 93.5199 298.93Z" fill="#F7A9A0"/>
<path d="M49.12 161.07C49.47 173.76 60.34 205.53 65.35 210.72C70.36 215.91 108.35 197.72 110.44 190.72C112.53 183.72 114.33 142.1 105.96 132.22C97.59 122.34 48.75 147.93 49.12 161.07Z" fill="#F7A9A0"/>
<path d="M115.79 150C112.47 155.85 107.48 148.59 107.48 148.59C107.48 148.59 112.15 160.77 106.4 165.48C100.84 170 95.11 161.02 94.7 160.38C94.94 161.03 98.94 172.38 92.7 176.47C86.18 180.76 81.98 170.76 81.7 170.11C81.7 170.8 82.07 179.82 76.59 181.88C67.18 185.42 65.7 162.36 59.37 157.24C59.37 157.24 49.48 161.84 49.13 162.06C49.13 162.06 47.28 145.3 54.65 137.14C55.7025 135.935 57.1359 135.127 58.7116 134.851C60.2873 134.574 61.9101 134.846 63.31 135.62C63.31 135.62 61.94 128.62 66.77 125.21C69.25 123.46 74.26 125.89 74.26 125.89C74.26 125.89 73.39 120.24 77.87 117.47C81.45 115.25 85.87 118.03 85.87 118.03C85.87 118.03 87.55 112.22 91.94 111.13C100.81 108.9 122.88 137.44 115.79 150Z" fill="#F7A9A0"/>
<path d="M86.6601 118.33C86.6494 118.311 86.645 118.29 86.6474 118.269C86.6498 118.247 86.6589 118.228 86.6734 118.212C86.688 118.196 86.7071 118.186 86.7281 118.182C86.7491 118.178 86.7708 118.181 86.7901 118.19C96.3401 125.8 104.5 137.09 107.79 148.92C107.9 149.31 107.31 149.66 107.11 149.25C101.39 137.7 95.3901 127.9 86.6601 118.33Z" fill="#263238"/>
<path d="M74.1801 125.67C74.0901 125.57 74.2601 125.41 74.3801 125.5C84.1801 133.4 93.0201 146.37 95.2001 160.5C95.2801 160.98 94.8601 161.5 94.7301 160.94C92.5701 151.64 82.0801 134.25 74.1801 125.67Z" fill="#263238"/>
<path d="M81.5001 171.12C78.8801 157.69 72.2201 146.45 63.7201 135.89C63.6101 135.75 63.8201 135.61 63.9401 135.7C69.5101 139.7 74.2201 147.03 77.4101 153.02C80.4798 158.511 82.062 164.709 82.0001 171C82.0001 171.28 81.5501 171.41 81.5001 171.12Z" fill="#263238"/>
<path d="M107.48 148.56C108.159 150.976 108.615 153.45 108.84 155.95C109.148 158.373 108.803 160.835 107.84 163.08C107.354 164.089 106.509 164.881 105.47 165.3C104.418 165.711 103.279 165.846 102.16 165.69C101.058 165.448 100.019 164.975 99.1128 164.303C98.2063 163.63 97.4522 162.774 96.9001 161.79L94.0001 157.1L95.1001 162.51C95.6038 164.909 95.7152 167.375 95.4301 169.81C95.1201 172.18 94.1801 174.46 92.3701 175.66C91.5328 176.303 90.5007 176.639 89.4454 176.614C88.3901 176.588 87.3754 176.202 86.5701 175.52C84.7984 173.953 83.456 171.96 82.6701 169.73L80.2801 163.65L80.5401 170.15C80.6216 171.959 80.467 173.771 80.0801 175.54C79.7818 177.23 78.9923 178.795 77.8101 180.04C77.2527 180.576 76.557 180.946 75.8009 181.108C75.0449 181.271 74.2585 181.219 73.5301 180.96C71.9909 180.136 70.718 178.89 69.8601 177.37C67.9763 174.102 66.3513 170.691 65.0001 167.17C64.2501 165.41 63.4901 163.65 62.6501 161.92C61.9003 160.137 60.7826 158.532 59.3701 157.21C60.6092 158.654 61.5567 160.325 62.1601 162.13C62.8601 163.9 63.4801 165.71 64.1001 167.52C65.2553 171.214 66.7587 174.79 68.5901 178.2C69.5526 180.065 71.0359 181.611 72.8601 182.65C73.9141 183.103 75.0775 183.238 76.2073 183.039C77.3371 182.84 78.3843 182.316 79.2201 181.53C80.7497 180.035 81.7949 178.116 82.2201 176.02C82.6802 174.054 82.8819 172.037 82.8201 170.02L80.7001 170.44C81.5879 173.095 83.1568 175.471 85.2501 177.33C86.438 178.33 87.9373 178.885 89.4901 178.9C91.0138 178.862 92.4909 178.367 93.7301 177.48C96.2601 175.72 97.3001 172.73 97.6001 170.08C97.88 167.404 97.7144 164.701 97.1101 162.08L95.3001 162.81C96.0323 164.004 97.0167 165.024 98.1844 165.798C99.3521 166.572 100.675 167.081 102.06 167.29C103.454 167.416 104.856 167.178 106.13 166.6C107.43 165.987 108.462 164.92 109.03 163.6C110.13 161.05 109.9 158.37 109.55 155.87C109.136 153.363 108.442 150.911 107.48 148.56Z" fill="#263238"/>
<path d="M111.62 193.4C111.62 193.4 142.48 136.9 113.62 136.15C106.62 135.97 78.8099 147.25 80.8199 152.88C83.4199 160.16 95.8199 157.93 103.46 155.29C103.46 155.29 94.3299 171.37 103.63 181.07C107.095 184.601 109.812 188.795 111.62 193.4Z" fill="#F7A9A0"/>
<path d="M115.62 136.12C112.872 136.012 110.122 136.309 107.46 137C104.779 137.615 102.142 138.414 99.5701 139.39C94.3781 141.259 89.359 143.578 84.5701 146.32C83.3043 147.049 82.1465 147.951 81.1301 149C80.551 149.61 80.1139 150.341 79.8501 151.14C79.7009 151.581 79.6299 152.044 79.6401 152.51C79.6529 152.967 79.7372 153.419 79.8901 153.85C80.4627 155.398 81.5643 156.695 83.0001 157.51C84.3364 158.214 85.7844 158.681 87.2801 158.89C90.114 159.231 92.9852 159.085 95.7701 158.46C98.4886 157.899 101.162 157.141 103.77 156.19L102.64 154.8C101.667 156.674 100.873 158.636 100.27 160.66C99.6516 162.659 99.2394 164.717 99.0401 166.8C98.8657 168.891 98.9936 170.996 99.4201 173.05C99.8488 175.081 100.66 177.012 101.81 178.74C100.914 176.913 100.329 174.949 100.08 172.93C99.8623 170.932 99.9162 168.913 100.24 166.93C100.544 164.954 101.047 163.014 101.74 161.14C102.42 159.272 103.27 157.471 104.28 155.76L105.55 153.67L103.15 154.38C100.606 155.196 98.0099 155.844 95.3801 156.32C92.8236 156.84 90.2 156.944 87.6101 156.63C85.1801 156.26 82.6801 155.12 82.0001 153.13C81.2401 151.43 83.5501 149.52 85.7001 148.13C87.9615 146.699 90.2982 145.39 92.7001 144.21C95.1101 142.97 97.5401 141.77 100.02 140.7C105.08 138.67 110.17 136.55 115.62 136.12Z" fill="#263238"/>
<path d="M118 196.85L55.7701 210.45C55.7701 210.45 51.6701 222.25 55.2901 234.5C62.1601 257.74 82.6501 307.63 99.1801 306.5C117.08 305.25 121.43 242.89 121.18 212.35C121 202 118 196.85 118 196.85Z" fill="#C150F1"/>
<g opacity="0.1">
<path d="M121.11 221.12C121.11 222.43 121.11 223.78 121.02 225.12C119.52 225.87 118.02 226.58 116.4 227.19C115.23 227.65 114.03 228.07 112.81 228.43C112.19 228.61 111.57 228.79 110.94 228.93C110.281 229.086 109.613 229.203 108.94 229.28C106.333 229.531 103.701 229.314 101.17 228.64C98.72 228.07 96.38 227.29 94.01 226.75C91.6702 226.175 89.2778 225.84 86.87 225.75C84.5111 225.682 82.1544 225.947 79.87 226.54C79.31 226.68 78.74 226.86 78.21 227.03C77.68 227.2 77.21 227.42 76.65 227.64C75.6 228.12 74.52 228.64 73.44 229.15L66.93 232.33C64.75 233.4 62.54 234.47 60.31 235.49C58.96 236.13 57.58 236.72 56.18 237.29C55.87 236.29 55.58 235.36 55.31 234.45C55.1 233.76 54.92 233.07 54.78 232.38C58.19 231.04 61.64 229.64 65.1 228.23C67.37 227.33 69.62 226.38 71.98 225.58C73.16 225.19 74.34 224.79 75.59 224.49C76.22 224.34 76.85 224.19 77.59 224.09C78.33 223.99 78.87 223.94 79.51 223.91C84.65 223.61 89.51 224.55 94.37 225.12C99.0307 225.771 103.759 225.771 108.42 225.12C109.42 224.94 110.58 224.67 111.7 224.37C112.82 224.07 113.93 223.72 115.05 223.37C117 222.69 119.07 221.93 121.11 221.12Z" fill="black"/>
<path d="M120.77 232C120.77 232.72 120.71 233.44 120.67 234.17C119.85 234.86 119.02 235.53 118.16 236.17C116.457 237.47 114.658 238.64 112.78 239.67C111.813 240.184 110.81 240.628 109.78 241C108.682 241.38 107.539 241.616 106.38 241.7C101.87 241.99 97.7201 241.08 93.6201 240.19L87.5401 238.79C86.5401 238.56 85.5401 238.35 84.5401 238.15C83.5843 237.947 82.6151 237.814 81.6401 237.75C81.4204 237.735 81.1998 237.735 80.9801 237.75L80.2601 237.84L79.5401 237.98C79.3101 237.98 79.0701 238.11 78.8301 238.17C77.8407 238.478 76.8908 238.901 76.0001 239.43C74.2424 240.486 72.6404 241.782 71.2401 243.28C70.5101 244.02 69.8401 244.81 69.1501 245.59L67.1501 248C65.7739 249.74 64.0765 251.2 62.1501 252.3C61.9479 252.413 61.7372 252.51 61.5201 252.59C61.2101 251.78 60.9101 250.98 60.6101 250.18C60.7601 250.12 60.9201 250.07 61.0701 250C62.8491 249.167 64.5074 248.097 66.0001 246.82C67.6001 245.52 69.1101 244.07 70.6301 242.63C72.1255 241.126 73.7335 239.739 75.4401 238.48C76.3194 237.84 77.2568 237.284 78.2401 236.82C78.7501 236.59 79.2401 236.4 79.8001 236.22L80.6101 235.99C80.8901 235.93 81.2201 235.87 81.5001 235.84C82.6043 235.734 83.716 235.734 84.8201 235.84C85.8901 235.93 86.9401 236.08 87.9801 236.24C90.0601 236.57 92.1101 236.95 94.1501 237.3C96.1901 237.65 98.2201 237.98 100.23 238.25C102.189 238.55 104.168 238.7 106.15 238.7C107.077 238.683 107.997 238.549 108.89 238.3C109.823 238.033 110.736 237.699 111.62 237.3C113.468 236.466 115.258 235.51 116.98 234.44C118.26 233.687 119.523 232.873 120.77 232Z" fill="black"/>
</g>
<path d="M117.23 213.6C86.4501 222.24 64.2301 226.25 59.9001 226.92C59.8762 226.92 59.8533 226.911 59.8364 226.894C59.8195 226.877 59.8101 226.854 59.8101 226.83C59.8101 226.806 59.8195 226.783 59.8364 226.766C59.8533 226.749 59.8762 226.74 59.9001 226.74C81.2901 220.18 115.13 213.4 117.21 213.23C117.253 213.237 117.291 213.259 117.32 213.291C117.349 213.323 117.365 213.364 117.368 213.407C117.37 213.45 117.358 213.493 117.333 213.528C117.308 213.563 117.271 213.588 117.23 213.6Z" fill="#263238"/>
<path d="M120.26 250.6C119.53 256.43 117.87 265.68 116.53 271.4C116.44 271.76 116.35 272.12 116.27 272.48C116.65 274.531 116.841 276.613 116.84 278.7C116.84 281.14 116.63 283.55 116.38 285.97C116.38 286.07 116.21 286.06 116.22 285.97C116.38 283.562 116.36 281.145 116.16 278.74C116.05 277.31 115.93 275.87 115.81 274.43C114.5 279.89 113.12 285.35 111.42 290.7C111.42 290.8 111.24 290.7 111.27 290.64C112.55 284.83 113.92 279.03 114.99 273.18C116.06 267.33 118.51 253.6 119.53 247.79C120.34 243.18 120.49 248.77 120.26 250.6Z" fill="#263238"/>
<path d="M177 226.31C177.73 228.44 189.52 241.59 199.44 240.15C202.68 239.67 200.87 221.92 200.87 221.92L201.04 220.58L203.36 201.8L177.13 188.53C177.13 188.53 176.69 225.4 177 226.31Z" fill="#F7A9A0"/>
<path d="M203.34 201.81L201 220.57L200.84 221.92C200.84 221.92 201.16 225.14 201.29 228.86C187.51 228.17 180.29 218.57 176.89 211.79C176.95 201.14 177.1 188.53 177.1 188.53L203.34 201.81Z" fill="#263238"/>
<path d="M232.59 169.8C242.17 209.18 219.66 219.36 211.16 221.42C203.45 223.28 176.96 228.65 163.37 190.47C149.78 152.29 165.06 135.39 182.47 130.19C199.88 124.99 223 130.41 232.59 169.8Z" fill="#F7A9A0"/>
<path d="M221.28 170.93C220.345 170.943 219.411 170.907 218.48 170.82C217.491 170.922 216.496 170.693 215.65 170.17C215.416 169.953 215.26 169.664 215.207 169.349C215.155 169.034 215.209 168.711 215.36 168.43C215.737 167.917 216.245 167.516 216.831 167.267C217.417 167.019 218.059 166.934 218.69 167.02C219.993 166.985 221.263 167.437 222.25 168.29C222.463 168.497 222.612 168.762 222.678 169.052C222.743 169.342 222.724 169.645 222.621 169.924C222.519 170.204 222.337 170.447 222.099 170.626C221.861 170.804 221.577 170.91 221.28 170.93Z" fill="#263238"/>
<path d="M193.26 176.93C194.146 176.641 195.017 176.307 195.87 175.93C196.835 175.698 197.697 175.153 198.32 174.38C198.472 174.098 198.525 173.773 198.471 173.458C198.416 173.142 198.258 172.854 198.02 172.64C197.494 172.282 196.881 172.073 196.246 172.032C195.611 171.992 194.977 172.122 194.41 172.41C193.169 172.811 192.121 173.659 191.47 174.79C191.346 175.055 191.3 175.35 191.338 175.641C191.376 175.931 191.496 176.205 191.684 176.429C191.872 176.654 192.12 176.82 192.399 176.909C192.678 176.998 192.977 177.005 193.26 176.93Z" fill="#263238"/>
<path d="M205.12 204.13C205.85 204.7 206.6 205.51 207.6 205.49C208.62 205.363 209.601 205.022 210.48 204.49C210.498 204.483 210.518 204.481 210.537 204.485C210.557 204.489 210.574 204.498 210.588 204.512C210.602 204.526 210.611 204.543 210.615 204.563C210.619 204.582 210.617 204.602 210.61 204.62C210.276 205.201 209.791 205.68 209.207 206.008C208.622 206.335 207.96 206.498 207.29 206.48C206.714 206.397 206.177 206.145 205.746 205.754C205.314 205.364 205.01 204.854 204.87 204.29C204.81 204.13 205 204 205.12 204.13Z" fill="#263238"/>
<path d="M215.06 197.58C214.343 199.384 213.176 200.975 211.67 202.2C210.825 202.829 209.804 203.179 208.75 203.2C206.44 203.26 205.82 201.3 205.75 199.5C205.71 198.541 205.788 197.58 205.98 196.64C208.829 197.913 212.011 198.242 215.06 197.58Z" fill="white"/>
<path d="M213.68 200.13C213.57 200.28 213.45 200.45 213.32 200.6C212.593 200.685 211.858 200.685 211.13 200.6C212 200.44 212.85 200.29 213.68 200.13Z" fill="#DBDBDB"/>
<path d="M208.81 200.41C208.248 200.415 207.688 200.355 207.14 200.23C206.662 200.107 206.197 199.939 205.75 199.73C205.75 199.67 205.75 199.59 205.75 199.53C205.75 199.47 205.75 199.33 205.75 199.23C206.744 199.687 207.766 200.081 208.81 200.41Z" fill="#DBDBDB"/>
<path d="M214.87 192.4C214.87 192.4 216.1 196.4 216.42 198.29C216.42 198.47 216 198.63 215.36 198.77C215.36 198.77 215.31 198.77 215.28 198.77C213.684 199.343 211.961 199.465 210.3 199.125C208.638 198.785 207.102 197.994 205.86 196.84C205.818 196.808 205.79 196.761 205.782 196.708C205.775 196.656 205.788 196.602 205.82 196.56C205.852 196.517 205.899 196.489 205.952 196.482C206.004 196.474 206.058 196.488 206.1 196.52C208.826 197.788 211.888 198.139 214.83 197.52C214.83 196.97 212.47 190.72 212.78 190.72C214.09 190.72 216.43 190.91 217.3 190.98C216.55 188.38 214.07 181.11 212.72 176.37C212.64 176.08 213.09 175.9 213.2 176.17C215.668 181.397 217.786 186.782 219.54 192.29C219.67 192.75 215.69 192.59 214.87 192.4Z" fill="#263238"/>
<path d="M195.45 184.3C195.463 183.592 195.667 182.901 196.04 182.3C196.26 181.986 196.543 181.72 196.869 181.519C197.196 181.318 197.56 181.185 197.94 181.13C198.329 181.084 198.723 181.13 199.091 181.263C199.459 181.397 199.791 181.615 200.06 181.9C200.524 182.405 200.867 183.011 201.06 183.67C201.164 184.065 201.244 184.465 201.3 184.87C201.418 185.712 201.343 186.571 201.08 187.38C201.034 186.766 200.92 186.159 200.74 185.57C200.586 185.041 200.396 184.523 200.17 184.02C199.68 183.02 198.94 182.19 198.09 182.35C197.24 182.51 196.63 183.27 196.41 184.35C196.223 185.513 196.15 186.692 196.19 187.87C195.676 186.751 195.423 185.531 195.45 184.3Z" fill="#263238"/>
<path d="M222.69 179C222.413 178.359 221.967 177.806 221.4 177.4C221.078 177.19 220.717 177.049 220.338 176.985C219.96 176.922 219.572 176.937 219.2 177.03C218.822 177.132 218.474 177.322 218.184 177.584C217.893 177.847 217.669 178.174 217.53 178.54C217.289 179.177 217.203 179.863 217.28 180.54C217.326 180.945 217.403 181.346 217.51 181.74C217.708 182.568 218.103 183.336 218.66 183.98C218.465 183.397 218.341 182.793 218.29 182.18C218.245 181.627 218.245 181.072 218.29 180.52C218.35 179.39 218.73 178.37 219.58 178.2C220.43 178.03 221.28 178.49 221.9 179.45C222.511 180.458 223.023 181.523 223.43 182.63C223.476 181.378 223.223 180.134 222.69 179Z" fill="#263238"/>
<path d="M159.47 194C171.52 194.13 176.94 179.45 173.47 168.11C173.47 168.11 205.63 170.45 205.64 144.75C208.086 148.08 211.314 150.756 215.039 152.544C218.764 154.332 222.872 155.175 227 155L231.13 164.23C234.35 163.09 237.28 153.59 228.84 146.76C228.84 146.76 227.54 134.03 217.67 126.92C214.998 124.87 211.791 123.636 208.434 123.366C205.078 123.097 201.715 123.803 198.75 125.4C192.958 121.71 185.957 120.419 179.23 121.8C167.61 124 163.4 135 163.4 135C163.4 135 147.77 139 145.75 150.34C145.098 153.574 145.14 156.909 145.873 160.126C146.605 163.343 148.012 166.367 150 169C150 169 146.3 173.65 148.88 183.11C150.5 189.14 155.86 194 159.47 194Z" fill="#263238"/>
<path d="M204.78 142.54C205.145 144.602 205.293 146.697 205.22 148.79C205.206 150.855 204.937 152.91 204.42 154.91C203.434 158.867 200.991 162.306 197.58 164.54C194.27 166.95 190.03 167.54 185.99 168.18C183.92 168.24 181.84 168.45 179.75 168.39C177.66 168.33 175.57 168.17 173.45 168.13C175.52 168.5 177.61 168.79 179.71 169.13C181.81 169.47 183.94 169.26 186.08 169.33C190.28 168.91 194.7 168.33 198.39 165.78C202.063 163.315 204.626 159.51 205.53 155.18C206.348 150.971 206.09 146.623 204.78 142.54Z" fill="#263238"/>
<path d="M163.4 135C159.347 135.271 155.395 136.378 151.79 138.25C148.028 140.104 145.043 143.228 143.36 147.07C142.654 149.026 142.266 151.082 142.21 153.16C142.079 155.223 142.302 157.293 142.87 159.28C143.938 163.302 146.485 166.773 150 169C146.97 166.442 144.862 162.961 144 159.09C143.156 155.299 143.42 151.345 144.76 147.7C145.452 145.927 146.47 144.299 147.76 142.9C149.13 141.523 150.665 140.32 152.33 139.32C155.768 137.302 159.504 135.844 163.4 135Z" fill="#263238"/>
<path d="M198.79 125.44C201.735 124.165 204.864 123.368 208.06 123.08C211.175 122.777 214.315 123.28 217.18 124.54C219.982 125.918 222.389 127.982 224.18 130.54C226.028 133.165 227.484 136.045 228.5 139.09C228.02 135.829 226.869 132.703 225.12 129.91C223.426 126.962 220.862 124.611 217.779 123.179C214.696 121.746 211.245 121.303 207.9 121.91C204.644 122.414 201.536 123.618 198.79 125.44Z" fill="#263238"/>
<path d="M222.11 156.37C218.543 155.388 215.163 153.82 212.11 151.73C210.618 150.687 209.273 149.45 208.11 148.05C206.935 146.605 205.929 145.032 205.11 143.36C205.388 145.268 206.07 147.096 207.11 148.72C208.153 150.373 209.512 151.804 211.11 152.93C212.694 154.054 214.446 154.921 216.3 155.5C218.172 156.123 220.138 156.418 222.11 156.37Z" fill="#263238"/>
<path d="M196.76 199.28C194.116 199.466 191.473 198.906 189.131 197.664C186.789 196.422 184.843 194.548 183.514 192.255C182.185 189.962 181.527 187.341 181.613 184.692C181.7 182.043 182.528 179.471 184.004 177.27C185.48 175.068 187.545 173.325 189.962 172.239C192.38 171.152 195.054 170.767 197.681 171.125C200.307 171.483 202.78 172.572 204.818 174.266C206.856 175.961 208.378 178.193 209.21 180.71C210.381 184.276 210.091 188.161 208.404 191.513C206.718 194.866 203.771 197.414 200.21 198.6C199.092 198.965 197.933 199.194 196.76 199.28ZM194.91 172.92C193.89 172.994 192.882 173.192 191.91 173.51C188.949 174.489 186.472 176.559 184.983 179.3C183.495 182.041 183.107 185.247 183.899 188.263C184.691 191.28 186.603 193.882 189.245 195.538C191.888 197.195 195.063 197.782 198.123 197.18C201.183 196.578 203.899 194.833 205.718 192.299C207.536 189.765 208.321 186.633 207.911 183.541C207.502 180.449 205.929 177.629 203.514 175.656C201.098 173.683 198.021 172.704 194.91 172.92Z" fill="#C150F1"/>
<path d="M227.42 193.16C222.01 193.54 216.73 188.35 215.35 181.09C214.641 177.632 215.025 174.039 216.45 170.81C216.98 169.386 217.869 168.124 219.031 167.145C220.192 166.166 221.587 165.503 223.08 165.222C224.573 164.94 226.113 165.049 227.551 165.537C228.99 166.026 230.278 166.877 231.29 168.01C233.796 170.491 235.464 173.694 236.06 177.17C237.51 184.84 234.06 191.96 228.34 193.04C228.036 193.099 227.729 193.14 227.42 193.16ZM224.14 167C223.9 167 223.67 167 223.43 167.09C222.253 167.37 221.16 167.929 220.243 168.719C219.326 169.509 218.612 170.507 218.16 171.63C216.899 174.496 216.567 177.685 217.21 180.75C218.47 187.39 223.29 192.08 227.99 191.19C232.69 190.3 235.46 184.19 234.2 177.54C233.682 174.45 232.21 171.6 229.99 169.39C229.236 168.605 228.326 167.987 227.318 167.575C226.311 167.163 225.228 166.967 224.14 167Z" fill="#C150F1"/>
<path d="M209.18 182.38L207.94 181.38C209.44 179.55 213.17 176.77 216.62 179.29L215.62 180.57C212.59 178.3 209.32 182.22 209.18 182.38Z" fill="#C150F1"/>
<path d="M153.16 196.12L151.63 195.66C151.85 194.95 153.81 188.66 157.2 187.43C160.38 186.29 181.76 184.29 182.67 184.2L182.82 185.79C176.69 186.36 160.2 188.04 157.75 188.93C155.51 189.75 153.68 194.4 153.16 196.12Z" fill="#C150F1"/>
<path d="M171.73 192.28C171.73 192.28 161.07 181.12 155.88 185.1C150.69 189.08 160.03 206.21 167.07 207.67C167.958 207.92 168.887 207.988 169.802 207.871C170.717 207.753 171.599 207.451 172.395 206.984C173.191 206.517 173.884 205.895 174.433 205.153C174.982 204.412 175.375 203.567 175.59 202.67L171.73 192.28Z" fill="#F7A9A0"/>
<path d="M158.68 189.94C158.66 189.946 158.643 189.959 158.63 189.976C158.618 189.993 158.611 190.014 158.611 190.035C158.611 190.056 158.618 190.077 158.63 190.094C158.643 190.111 158.66 190.123 158.68 190.13C163.68 191.3 166.76 195.26 169.17 199.49C167.52 197.97 165.48 197.31 163.42 199.32C163.31 199.43 163.42 199.6 163.59 199.55C164.371 199.164 165.253 199.029 166.114 199.164C166.975 199.298 167.773 199.695 168.4 200.3C169.438 201.325 170.363 202.458 171.16 203.68C171.44 204.06 172.16 203.68 171.93 203.27L171.87 203.16C171.07 197.19 165.17 189.56 158.68 189.94Z" fill="#263238"/>
<path d="M160.62 229C158.98 227 169.53 221 172.27 223.26C175.01 225.52 188.88 260.7 184.38 298.87C179.88 337.04 106 378.17 103.25 372.46C102.11 370.06 103.57 363.37 105.37 361.23C107.9 358.23 161.25 325.11 166.52 301.44C171.2 280.39 164.78 234.2 160.62 229Z" fill="#455A64"/>
<path d="M202.21 228.2C199.99 223.99 211.42 227.38 212.67 229.65C213.92 231.92 229.2 268.39 231.84 292.23C232.84 301.78 236.59 327.49 236.59 327.49C236.59 327.49 225.43 293 216.23 264.12C212.32 251.863 207.637 239.865 202.21 228.2Z" fill="#455A64"/>
<path d="M389.65 419.41H274.75V433.01H389.65V419.41Z" fill="#37474F"/>
<path d="M301.97 419.41H297.29V433.01H301.97V419.41Z" fill="#455A64"/>
<path d="M376.13 419.41H364.9V433.01H376.13V419.41Z" fill="#455A64"/>
<path d="M381.38 379.65H264.02V397.62H381.38V379.65Z" fill="#37474F"/>
<path d="M360.62 385.48H332.43V391.79H360.62V385.48Z" fill="#C150F1"/>
<path d="M374.75 388.63C374.798 389.376 374.621 390.12 374.241 390.764C373.861 391.409 373.296 391.924 372.619 392.243C371.943 392.562 371.186 392.671 370.447 392.554C369.708 392.438 369.021 392.102 368.476 391.59C367.93 391.078 367.551 390.414 367.388 389.684C367.224 388.954 367.284 388.192 367.56 387.497C367.835 386.801 368.313 386.204 368.932 385.784C369.551 385.364 370.282 385.139 371.03 385.14C371.986 385.11 372.914 385.461 373.612 386.115C374.309 386.77 374.719 387.674 374.75 388.63Z" fill="#C150F1"/>
<path d="M317.65 363.75H258.36V379.61H317.65V363.75Z" fill="#263238"/>
<path d="M372.45 363.75H317.65V379.61H372.45V363.75Z" fill="#263238"/>
<path d="M317.65 365.4H258.36V377.97H317.65V365.4Z" fill="white"/>
<path d="M263.52 368C269.733 367.92 275.946 367.86 282.16 367.82L290.59 367.76L309.22 367.82C315.43 367.82 311.44 367.91 317.65 368C311.44 368.09 315.43 368.15 309.22 368.19L290.59 368.24L282.16 368.19C275.946 368.137 269.733 368.073 263.52 368Z" fill="#DBDBDB"/>
<path d="M263.52 370.45C269.733 370.363 275.946 370.303 282.16 370.27L290.59 370.21L309.22 370.26C315.43 370.26 311.44 370.36 317.65 370.45C311.44 370.54 315.43 370.6 309.22 370.63L290.59 370.69L282.16 370.63C275.946 370.603 269.733 370.543 263.52 370.45Z" fill="#DBDBDB"/>
<path d="M263.52 372.91C269.733 372.83 275.946 372.77 282.16 372.73L290.59 372.68L309.22 372.73C315.43 372.73 311.44 372.83 317.65 372.91C311.44 373 315.43 373.07 309.22 373.1H290.59H282.16C275.946 373.067 269.733 373.003 263.52 372.91Z" fill="#DBDBDB"/>
<path d="M263.52 375.38C269.733 375.293 275.946 375.233 282.16 375.2L290.59 375.14L309.22 375.2C315.43 375.2 311.44 375.29 317.65 375.38C311.44 375.47 315.43 375.53 309.22 375.56L290.59 375.62L282.16 375.56C275.946 375.533 269.733 375.473 263.52 375.38Z" fill="#DBDBDB"/>
<path d="M337.51 363.75H329.79V379.61H337.51V363.75Z" fill="#455A64"/>
<path d="M369.62 363.75H364.43V379.61H369.62V363.75Z" fill="#455A64"/>
<path d="M309.78 419.4H376.55V397.6H309.78V419.4Z" fill="#C150F1"/>
<path d="M259.08 419.4H309.78V397.6H259.08V419.4Z" fill="#C150F1"/>
<path d="M309.78 417.14H376.55V399.87H309.78V417.14Z" fill="white"/>
<path d="M372.22 413.59C367.02 413.683 361.816 413.743 356.61 413.77L341 413.83L325.39 413.77C320.183 413.77 314.976 413.71 309.77 413.59C314.983 413.503 320.19 413.443 325.39 413.41L341 413.35L356.61 413.41C361.816 413.443 367.02 413.503 372.22 413.59Z" fill="#DBDBDB"/>
<path d="M372.22 410.2C367.02 410.293 361.816 410.353 356.61 410.38L341 410.44L325.39 410.39C320.183 410.35 314.976 410.287 309.77 410.2C314.983 410.113 320.19 410.053 325.39 410.02L341 410L356.61 410.06C361.816 410.067 367.02 410.113 372.22 410.2Z" fill="#DBDBDB"/>
<path d="M372.22 406.81C367.02 406.897 361.816 406.96 356.61 407L341 407.05L325.39 407C320.183 406.96 314.976 406.897 309.77 406.81C314.983 406.723 320.19 406.663 325.39 406.63L341 406.57L356.61 406.63C361.816 406.663 367.02 406.723 372.22 406.81Z" fill="#DBDBDB"/>
<path d="M372.22 403.42C367.02 403.507 361.816 403.57 356.61 403.61L341 403.66L325.39 403.61C320.183 403.61 314.976 403.547 309.77 403.42C314.983 403.327 320.19 403.267 325.39 403.24L341 403.18L356.61 403.24C361.82 403.27 367 403.34 372.22 403.42Z" fill="#DBDBDB"/>
<path d="M276.64 397.61H267.15V419.41H276.64V397.61Z" fill="#455A64"/>
<path d="M314.92 103.66C314.918 110.277 313.079 116.763 309.607 122.396C306.134 128.028 301.166 132.585 295.255 135.559C289.345 138.533 282.724 139.807 276.132 139.239C269.539 138.67 263.235 136.282 257.92 132.34L240.42 136.81L247.71 120.51C245.146 115.721 243.708 110.409 243.505 104.98C243.302 99.5514 244.34 94.1477 246.54 89.1802C248.739 84.2126 252.043 79.8121 256.199 76.3132C260.355 72.8143 265.254 70.3092 270.524 68.9885C275.794 67.6677 281.295 67.566 286.61 68.6912C291.925 69.8163 296.913 72.1387 301.196 75.4816C305.478 78.8245 308.942 83.1 311.324 87.9829C313.705 92.8657 314.942 98.2274 314.94 103.66H314.92Z" fill="white"/>
<path d="M314.92 103.66C314.911 110.278 313.077 116.766 309.62 122.41C308.752 123.798 307.804 125.133 306.78 126.41C305.715 127.667 304.573 128.856 303.36 129.97C302.768 130.542 302.147 131.082 301.5 131.59L299.5 133.08C298.84 133.57 298.11 133.96 297.41 134.41L296.36 135.06C296 135.26 295.62 135.43 295.26 135.61C294.51 135.97 293.78 136.35 293.03 136.69L290.71 137.56C289.938 137.856 289.146 138.096 288.34 138.28C287.54 138.47 286.76 138.74 285.94 138.86C284.317 139.18 282.672 139.38 281.02 139.46C279.356 139.592 277.684 139.592 276.02 139.46C272.714 139.19 269.461 138.47 266.35 137.32C263.241 136.147 260.304 134.56 257.62 132.6L257.92 132.66L240.44 137.2L239.56 137.43L239.93 136.6L247.18 120.28V120.71C244.587 115.869 243.155 110.49 243 105C242.801 99.4992 243.863 94.0257 246.106 88.9989C248.349 83.9722 251.713 79.5257 255.94 76.0001C260.15 72.4982 265.107 70.0078 270.43 68.7201C275.718 67.4384 281.227 67.372 286.544 68.5258C291.861 69.6795 296.848 72.0235 301.129 75.3815C305.41 78.7394 308.874 83.024 311.261 87.9133C313.648 92.8026 314.895 98.1693 314.91 103.61L314.92 103.66ZM314.92 103.66C314.892 98.2375 313.633 92.892 311.239 88.0264C308.845 83.1607 305.379 78.9017 301.1 75.5701C296.811 72.2791 291.839 69.9898 286.55 68.8701C281.253 67.803 275.782 67.95 270.55 69.3001C265.34 70.6297 260.503 73.1336 256.41 76.6201C252.352 80.1289 249.113 84.4844 246.92 89.3801C244.763 94.283 243.747 99.6119 243.949 104.965C244.152 110.318 245.568 115.554 248.09 120.28L248.2 120.49L248.11 120.71L240.8 137L240.29 136.39L257.82 132H257.98L258.12 132.1C263.351 136.065 269.585 138.489 276.12 139.1C277.749 139.253 279.387 139.277 281.02 139.17C282.653 139.103 284.281 138.926 285.89 138.64C286.7 138.53 287.48 138.26 288.28 138.08C289.083 137.913 289.872 137.686 290.64 137.4L292.95 136.57L295.17 135.52C295.54 135.34 295.92 135.18 296.28 134.98L297.28 134.35C297.97 133.92 298.71 133.54 299.37 133.06L301.37 131.59C302.018 131.087 302.639 130.549 303.23 129.98C304.44 128.873 305.582 127.694 306.65 126.45C307.68 125.176 308.632 123.84 309.5 122.45C313.006 116.807 314.882 110.304 314.92 103.66Z" fill="#263238"/>
<path d="M273.4 124.92L257.39 108.71L262.77 103.39L272.12 112.86L291.56 82.4001L297.93 86.4601L273.4 124.92Z" fill="#3CCF4D"/>
</svg>
